<mxfile host="app.diagrams.net" modified="2023-06-23T10:41:38.043Z" agent="Mozilla/5.0 (X11; Linux x86_64) AppleWebKit/537.36 (KHTML, like Gecko) Chrome/114.0.0.0 Safari/537.36" etag="hksPhVg7ZeHQOb0Le9F5" version="21.5.0" type="google" pages="2">
  <diagram name="event-model" id="Wfj8AiaFQGKIIE21bUQj">
    <mxGraphModel dx="7568" dy="3496" grid="0" gridSize="10" guides="1" tooltips="1" connect="1" arrows="1" fold="1" page="0" pageScale="1" pageWidth="850" pageHeight="1100" math="0" shadow="0">
      <root>
        <mxCell id="0" />
        <mxCell id="1" parent="0" />
        <mxCell id="24Jd7qota8Urgv1k8T98-17" value="Project Controller" style="text;html=1;align=center;verticalAlign=middle;resizable=0;points=[];autosize=1;strokeColor=none;fillColor=none;fontSize=32;container=1;movable=0;rotatable=0;deletable=0;editable=0;locked=1;connectable=0;" parent="1" vertex="1">
          <mxGeometry x="-358" y="312.5" width="265" height="50" as="geometry" />
        </mxCell>
        <mxCell id="24Jd7qota8Urgv1k8T98-34" value="Git Controller" style="text;html=1;align=center;verticalAlign=middle;resizable=0;points=[];autosize=1;strokeColor=none;fillColor=none;fontSize=32;container=1;movable=0;rotatable=0;deletable=0;editable=0;locked=1;connectable=0;" parent="1" vertex="1">
          <mxGeometry x="-329" y="671.5" width="207" height="50" as="geometry" />
        </mxCell>
        <mxCell id="24Jd7qota8Urgv1k8T98-37" value="Product Controller" style="text;html=1;align=center;verticalAlign=middle;resizable=0;points=[];autosize=1;strokeColor=none;fillColor=none;fontSize=32;container=1;movable=0;rotatable=0;deletable=0;editable=0;locked=1;connectable=0;" parent="1" vertex="1">
          <mxGeometry x="-363.5" y="850.5" width="276" height="50" as="geometry" />
        </mxCell>
        <mxCell id="24Jd7qota8Urgv1k8T98-40" value="OCM Controller" style="text;html=1;align=center;verticalAlign=middle;resizable=0;points=[];autosize=1;strokeColor=none;fillColor=none;fontSize=32;container=1;movable=0;rotatable=0;deletable=0;editable=0;locked=1;connectable=0;" parent="1" vertex="1">
          <mxGeometry x="-341.5" y="1029.5" width="240" height="50" as="geometry" />
        </mxCell>
        <mxCell id="qBDFfCMP4AuVNSvGdpCn-56" style="edgeStyle=orthogonalEdgeStyle;rounded=0;orthogonalLoop=1;jettySize=auto;html=1;strokeWidth=6;fillColor=#f8cecc;strokeColor=#b85450;" parent="1" source="qBDFfCMP4AuVNSvGdpCn-58" target="qBDFfCMP4AuVNSvGdpCn-61" edge="1">
          <mxGeometry relative="1" as="geometry" />
        </mxCell>
        <mxCell id="qBDFfCMP4AuVNSvGdpCn-57" value="" style="edgeStyle=orthogonalEdgeStyle;shape=connector;rounded=0;orthogonalLoop=1;jettySize=auto;html=1;labelBackgroundColor=default;strokeColor=#82b366;strokeWidth=6;fontFamily=Helvetica;fontSize=11;fontColor=default;endArrow=classic;fillColor=#d5e8d4;" parent="1" source="qBDFfCMP4AuVNSvGdpCn-58" target="qBDFfCMP4AuVNSvGdpCn-97" edge="1">
          <mxGeometry relative="1" as="geometry" />
        </mxCell>
        <mxCell id="qBDFfCMP4AuVNSvGdpCn-58" value="create project" style="rounded=0;whiteSpace=wrap;html=1;fillColor=#f8cecc;strokeColor=#b85450;fontStyle=1;fontSize=24;" parent="1" vertex="1">
          <mxGeometry x="-48" y="-79" width="220" height="110" as="geometry" />
        </mxCell>
        <mxCell id="qBDFfCMP4AuVNSvGdpCn-59" value="" style="edgeStyle=orthogonalEdgeStyle;shape=connector;rounded=0;orthogonalLoop=1;jettySize=auto;html=1;labelBackgroundColor=default;strokeColor=#b85450;strokeWidth=6;fontFamily=Helvetica;fontSize=11;fontColor=default;endArrow=classic;fillColor=#f8cecc;" parent="1" source="qBDFfCMP4AuVNSvGdpCn-61" target="qBDFfCMP4AuVNSvGdpCn-64" edge="1">
          <mxGeometry relative="1" as="geometry" />
        </mxCell>
        <mxCell id="qBDFfCMP4AuVNSvGdpCn-60" value="" style="edgeStyle=orthogonalEdgeStyle;shape=connector;rounded=0;orthogonalLoop=1;jettySize=auto;html=1;labelBackgroundColor=default;strokeColor=#82b366;strokeWidth=6;fontFamily=Helvetica;fontSize=11;fontColor=default;endArrow=classic;fillColor=#d5e8d4;" parent="1" source="qBDFfCMP4AuVNSvGdpCn-61" target="qBDFfCMP4AuVNSvGdpCn-90" edge="1">
          <mxGeometry relative="1" as="geometry" />
        </mxCell>
        <mxCell id="qBDFfCMP4AuVNSvGdpCn-61" value="provide a&lt;br&gt;deployment&lt;br&gt;&amp;nbsp;target" style="rounded=0;whiteSpace=wrap;html=1;fillColor=#f8cecc;strokeColor=#b85450;fontStyle=1;fontSize=24;" parent="1" vertex="1">
          <mxGeometry x="1540" y="-79" width="220" height="110" as="geometry" />
        </mxCell>
        <mxCell id="qBDFfCMP4AuVNSvGdpCn-62" value="" style="edgeStyle=orthogonalEdgeStyle;shape=connector;rounded=0;orthogonalLoop=1;jettySize=auto;html=1;labelBackgroundColor=default;strokeColor=#b85450;strokeWidth=6;fontFamily=Helvetica;fontSize=11;fontColor=default;endArrow=classic;fillColor=#f8cecc;" parent="1" source="qBDFfCMP4AuVNSvGdpCn-64" target="qBDFfCMP4AuVNSvGdpCn-67" edge="1">
          <mxGeometry relative="1" as="geometry" />
        </mxCell>
        <mxCell id="qBDFfCMP4AuVNSvGdpCn-63" value="" style="edgeStyle=orthogonalEdgeStyle;shape=connector;rounded=0;orthogonalLoop=1;jettySize=auto;html=1;labelBackgroundColor=default;strokeColor=#82b366;strokeWidth=6;fontFamily=Helvetica;fontSize=11;fontColor=default;endArrow=classic;fillColor=#d5e8d4;" parent="1" source="qBDFfCMP4AuVNSvGdpCn-64" target="qBDFfCMP4AuVNSvGdpCn-92" edge="1">
          <mxGeometry relative="1" as="geometry" />
        </mxCell>
        <mxCell id="qBDFfCMP4AuVNSvGdpCn-64" value="subscribe to&lt;br&gt;product" style="rounded=0;whiteSpace=wrap;html=1;fillColor=#f8cecc;strokeColor=#b85450;fontStyle=1;fontSize=24;" parent="1" vertex="1">
          <mxGeometry x="1837" y="-79" width="220" height="110" as="geometry" />
        </mxCell>
        <mxCell id="qBDFfCMP4AuVNSvGdpCn-65" style="edgeStyle=orthogonalEdgeStyle;shape=connector;rounded=0;orthogonalLoop=1;jettySize=auto;html=1;labelBackgroundColor=default;strokeColor=#b85450;strokeWidth=6;fontFamily=Helvetica;fontSize=11;fontColor=default;endArrow=classic;fillColor=#f8cecc;" parent="1" source="qBDFfCMP4AuVNSvGdpCn-67" target="qBDFfCMP4AuVNSvGdpCn-70" edge="1">
          <mxGeometry relative="1" as="geometry" />
        </mxCell>
        <mxCell id="qBDFfCMP4AuVNSvGdpCn-66" value="" style="edgeStyle=orthogonalEdgeStyle;shape=connector;rounded=0;orthogonalLoop=1;jettySize=auto;html=1;labelBackgroundColor=default;strokeColor=#82b366;strokeWidth=6;fontFamily=Helvetica;fontSize=11;fontColor=default;endArrow=classic;fillColor=#d5e8d4;" parent="1" source="qBDFfCMP4AuVNSvGdpCn-67" target="qBDFfCMP4AuVNSvGdpCn-94" edge="1">
          <mxGeometry relative="1" as="geometry" />
        </mxCell>
        <mxCell id="qBDFfCMP4AuVNSvGdpCn-67" value="initialise&lt;br&gt;product" style="rounded=0;whiteSpace=wrap;html=1;fillColor=#f8cecc;strokeColor=#b85450;fontStyle=1;fontSize=24;" parent="1" vertex="1">
          <mxGeometry x="2191" y="-79" width="220" height="110" as="geometry" />
        </mxCell>
        <mxCell id="qBDFfCMP4AuVNSvGdpCn-68" style="edgeStyle=orthogonalEdgeStyle;shape=connector;rounded=0;orthogonalLoop=1;jettySize=auto;html=1;labelBackgroundColor=default;strokeColor=#b85450;strokeWidth=6;fontFamily=Helvetica;fontSize=11;fontColor=default;endArrow=classic;fillColor=#f8cecc;" parent="1" source="qBDFfCMP4AuVNSvGdpCn-70" target="qBDFfCMP4AuVNSvGdpCn-71" edge="1">
          <mxGeometry relative="1" as="geometry" />
        </mxCell>
        <mxCell id="qBDFfCMP4AuVNSvGdpCn-69" value="" style="edgeStyle=orthogonalEdgeStyle;shape=connector;rounded=0;orthogonalLoop=1;jettySize=auto;html=1;labelBackgroundColor=default;strokeColor=#82b366;strokeWidth=6;fontFamily=Helvetica;fontSize=11;fontColor=default;endArrow=classic;fillColor=#d5e8d4;" parent="1" source="qBDFfCMP4AuVNSvGdpCn-70" target="qBDFfCMP4AuVNSvGdpCn-108" edge="1">
          <mxGeometry relative="1" as="geometry" />
        </mxCell>
        <mxCell id="qBDFfCMP4AuVNSvGdpCn-70" value="configure&lt;br style=&quot;font-size: 24px;&quot;&gt;product" style="rounded=0;whiteSpace=wrap;html=1;fillColor=#f8cecc;strokeColor=#b85450;fontStyle=1;fontSize=24;" parent="1" vertex="1">
          <mxGeometry x="3015" y="-79" width="220" height="110" as="geometry" />
        </mxCell>
        <mxCell id="qBDFfCMP4AuVNSvGdpCn-71" value="deploy product&lt;br&gt;(merge PR)" style="rounded=0;whiteSpace=wrap;html=1;fillColor=#f8cecc;strokeColor=#b85450;fontStyle=1;fontSize=24;" parent="1" vertex="1">
          <mxGeometry x="3580" y="-79" width="220" height="110" as="geometry" />
        </mxCell>
        <mxCell id="qBDFfCMP4AuVNSvGdpCn-72" value="" style="rounded=0;whiteSpace=wrap;html=1;movable=1;resizable=1;rotatable=1;deletable=1;editable=1;locked=0;connectable=1;" parent="1" vertex="1">
          <mxGeometry x="-421" y="261" width="5734" height="153" as="geometry" />
        </mxCell>
        <mxCell id="qBDFfCMP4AuVNSvGdpCn-73" value="Project Controller" style="text;html=1;align=center;verticalAlign=middle;resizable=0;points=[];autosize=1;strokeColor=none;fillColor=none;fontSize=32;container=1;movable=0;rotatable=0;deletable=0;editable=0;locked=1;connectable=0;" parent="1" vertex="1">
          <mxGeometry x="-358" y="312.5" width="265" height="50" as="geometry" />
        </mxCell>
        <mxCell id="qBDFfCMP4AuVNSvGdpCn-74" value="" style="edgeStyle=orthogonalEdgeStyle;shape=connector;rounded=0;orthogonalLoop=1;jettySize=auto;html=1;labelBackgroundColor=default;strokeColor=#82b366;strokeWidth=6;fontFamily=Helvetica;fontSize=11;fontColor=default;endArrow=classic;fillColor=#d5e8d4;" parent="1" source="qBDFfCMP4AuVNSvGdpCn-75" target="qBDFfCMP4AuVNSvGdpCn-126" edge="1">
          <mxGeometry relative="1" as="geometry" />
        </mxCell>
        <mxCell id="qBDFfCMP4AuVNSvGdpCn-75" value="create project&lt;br&gt;namespace" style="rounded=0;whiteSpace=wrap;html=1;fillColor=#fff2cc;strokeColor=#d6b656;fontStyle=1;fontSize=24;" parent="1" vertex="1">
          <mxGeometry x="-49" y="282.25" width="220" height="110" as="geometry" />
        </mxCell>
        <mxCell id="qBDFfCMP4AuVNSvGdpCn-76" value="create rbac" style="rounded=0;whiteSpace=wrap;html=1;fillColor=#fff2cc;strokeColor=#d6b656;fontStyle=1;fontSize=24;" parent="1" vertex="1">
          <mxGeometry x="560" y="281.75" width="220" height="110.5" as="geometry" />
        </mxCell>
        <mxCell id="qBDFfCMP4AuVNSvGdpCn-77" style="edgeStyle=orthogonalEdgeStyle;shape=connector;rounded=0;orthogonalLoop=1;jettySize=auto;html=1;entryX=0.5;entryY=1;entryDx=0;entryDy=0;labelBackgroundColor=default;strokeColor=#82b366;strokeWidth=6;fontFamily=Helvetica;fontSize=11;fontColor=default;endArrow=classic;fillColor=#d5e8d4;" parent="1" source="qBDFfCMP4AuVNSvGdpCn-78" target="qBDFfCMP4AuVNSvGdpCn-132" edge="1">
          <mxGeometry relative="1" as="geometry" />
        </mxCell>
        <mxCell id="qBDFfCMP4AuVNSvGdpCn-78" value="create flux&lt;br&gt;resources" style="rounded=0;whiteSpace=wrap;html=1;fillColor=#fff2cc;strokeColor=#d6b656;fontStyle=1;fontSize=24;" parent="1" vertex="1">
          <mxGeometry x="1268" y="282.25" width="220" height="110.5" as="geometry" />
        </mxCell>
        <mxCell id="qBDFfCMP4AuVNSvGdpCn-79" value="" style="rounded=0;whiteSpace=wrap;html=1;movable=1;resizable=1;rotatable=1;deletable=1;editable=1;locked=0;connectable=1;" parent="1" vertex="1">
          <mxGeometry x="-421" y="440" width="5734" height="153" as="geometry" />
        </mxCell>
        <mxCell id="qBDFfCMP4AuVNSvGdpCn-80" value="Replication Controller" style="text;html=1;align=center;verticalAlign=middle;resizable=1;points=[];autosize=1;strokeColor=none;fillColor=none;fontSize=32;container=1;movable=1;rotatable=1;deletable=1;editable=1;locked=0;connectable=1;" parent="1" vertex="1">
          <mxGeometry x="-387.5" y="491.5" width="324" height="50" as="geometry" />
        </mxCell>
        <mxCell id="qBDFfCMP4AuVNSvGdpCn-81" value="" style="rounded=0;whiteSpace=wrap;html=1;movable=1;resizable=1;rotatable=1;deletable=1;editable=1;locked=0;connectable=1;" parent="1" vertex="1">
          <mxGeometry x="-421" y="620" width="5733" height="153" as="geometry" />
        </mxCell>
        <mxCell id="qBDFfCMP4AuVNSvGdpCn-82" value="Git Controller" style="text;html=1;align=center;verticalAlign=middle;resizable=0;points=[];autosize=1;strokeColor=none;fillColor=none;fontSize=32;container=1;movable=0;rotatable=0;deletable=0;editable=0;locked=1;connectable=0;" parent="1" vertex="1">
          <mxGeometry x="-329" y="671.5" width="207" height="50" as="geometry" />
        </mxCell>
        <mxCell id="qBDFfCMP4AuVNSvGdpCn-83" style="edgeStyle=orthogonalEdgeStyle;shape=connector;rounded=0;orthogonalLoop=1;jettySize=auto;html=1;entryX=0;entryY=0.5;entryDx=0;entryDy=0;labelBackgroundColor=default;strokeColor=#82b366;strokeWidth=6;fontFamily=Helvetica;fontSize=11;fontColor=default;endArrow=classic;fillColor=#d5e8d4;" parent="1" source="qBDFfCMP4AuVNSvGdpCn-84" target="qBDFfCMP4AuVNSvGdpCn-136" edge="1">
          <mxGeometry relative="1" as="geometry" />
        </mxCell>
        <mxCell id="qBDFfCMP4AuVNSvGdpCn-84" value="create repository" style="rounded=0;whiteSpace=wrap;html=1;fillColor=#fff2cc;strokeColor=#d6b656;fontStyle=1;fontSize=24;" parent="1" vertex="1">
          <mxGeometry x="754" y="638" width="220" height="110" as="geometry" />
        </mxCell>
        <mxCell id="qBDFfCMP4AuVNSvGdpCn-85" value="" style="rounded=0;whiteSpace=wrap;html=1;movable=1;resizable=1;rotatable=1;deletable=1;editable=1;locked=0;connectable=1;" parent="1" vertex="1">
          <mxGeometry x="-421" y="799" width="5733" height="153" as="geometry" />
        </mxCell>
        <mxCell id="qBDFfCMP4AuVNSvGdpCn-86" value="Product Controller" style="text;html=1;align=center;verticalAlign=middle;resizable=0;points=[];autosize=1;strokeColor=none;fillColor=none;fontSize=32;container=1;movable=0;rotatable=0;deletable=0;editable=0;locked=1;connectable=0;" parent="1" vertex="1">
          <mxGeometry x="-363.5" y="850.5" width="276" height="50" as="geometry" />
        </mxCell>
        <mxCell id="qBDFfCMP4AuVNSvGdpCn-87" value="" style="rounded=0;whiteSpace=wrap;html=1;movable=1;resizable=1;rotatable=1;deletable=1;editable=1;locked=0;connectable=1;" parent="1" vertex="1">
          <mxGeometry x="-421" y="978" width="5737" height="153" as="geometry" />
        </mxCell>
        <mxCell id="qBDFfCMP4AuVNSvGdpCn-88" value="OCM Controller" style="text;html=1;align=center;verticalAlign=middle;resizable=0;points=[];autosize=1;strokeColor=none;fillColor=none;fontSize=32;container=1;movable=0;rotatable=0;deletable=0;editable=0;locked=1;connectable=0;" parent="1" vertex="1">
          <mxGeometry x="-341.5" y="1029.5" width="240" height="50" as="geometry" />
        </mxCell>
        <mxCell id="qBDFfCMP4AuVNSvGdpCn-89" value="" style="edgeStyle=orthogonalEdgeStyle;shape=connector;rounded=0;orthogonalLoop=1;jettySize=auto;html=1;labelBackgroundColor=default;strokeColor=#82b366;strokeWidth=6;fontFamily=Helvetica;fontSize=11;fontColor=default;endArrow=classic;fillColor=#d5e8d4;" parent="1" source="qBDFfCMP4AuVNSvGdpCn-90" target="qBDFfCMP4AuVNSvGdpCn-119" edge="1">
          <mxGeometry relative="1" as="geometry" />
        </mxCell>
        <mxCell id="qBDFfCMP4AuVNSvGdpCn-90" value="Target" style="rounded=0;whiteSpace=wrap;html=1;fillColor=#dae8fc;strokeColor=#6c8ebf;fontStyle=1;fontSize=24;" parent="1" vertex="1">
          <mxGeometry x="1540" y="86" width="220" height="110.5" as="geometry" />
        </mxCell>
        <mxCell id="qBDFfCMP4AuVNSvGdpCn-91" style="edgeStyle=orthogonalEdgeStyle;shape=connector;rounded=0;orthogonalLoop=1;jettySize=auto;html=1;labelBackgroundColor=default;strokeColor=#82b366;strokeWidth=6;fontFamily=Helvetica;fontSize=11;fontColor=default;endArrow=classic;fillColor=#d5e8d4;" parent="1" source="qBDFfCMP4AuVNSvGdpCn-92" target="qBDFfCMP4AuVNSvGdpCn-95" edge="1">
          <mxGeometry relative="1" as="geometry" />
        </mxCell>
        <mxCell id="qBDFfCMP4AuVNSvGdpCn-92" value="Subscription" style="rounded=0;whiteSpace=wrap;html=1;fillColor=#dae8fc;strokeColor=#6c8ebf;fontStyle=1;fontSize=24;" parent="1" vertex="1">
          <mxGeometry x="1837" y="86" width="220" height="110.5" as="geometry" />
        </mxCell>
        <mxCell id="qBDFfCMP4AuVNSvGdpCn-93" style="edgeStyle=orthogonalEdgeStyle;shape=connector;rounded=0;orthogonalLoop=1;jettySize=auto;html=1;labelBackgroundColor=default;strokeColor=#82b366;strokeWidth=6;fontFamily=Helvetica;fontSize=11;fontColor=default;endArrow=classic;fillColor=#d5e8d4;" parent="1" source="qBDFfCMP4AuVNSvGdpCn-94" target="qBDFfCMP4AuVNSvGdpCn-99" edge="1">
          <mxGeometry relative="1" as="geometry" />
        </mxCell>
        <mxCell id="qBDFfCMP4AuVNSvGdpCn-94" value="Product&lt;br&gt;Deployment Generator" style="rounded=0;whiteSpace=wrap;html=1;fillColor=#dae8fc;strokeColor=#6c8ebf;fontStyle=1;fontSize=24;" parent="1" vertex="1">
          <mxGeometry x="2192" y="86" width="220" height="110.5" as="geometry" />
        </mxCell>
        <mxCell id="qBDFfCMP4AuVNSvGdpCn-95" value="reconcile Subscription" style="rounded=0;whiteSpace=wrap;html=1;fillColor=#fff2cc;strokeColor=#d6b656;fontStyle=1;fontSize=24;" parent="1" vertex="1">
          <mxGeometry x="1838" y="461.25" width="220" height="110.5" as="geometry" />
        </mxCell>
        <mxCell id="qBDFfCMP4AuVNSvGdpCn-96" value="" style="edgeStyle=orthogonalEdgeStyle;shape=connector;rounded=0;orthogonalLoop=1;jettySize=auto;html=1;labelBackgroundColor=default;strokeColor=#82b366;strokeWidth=6;fontFamily=Helvetica;fontSize=11;fontColor=default;endArrow=classic;fillColor=#d5e8d4;" parent="1" source="qBDFfCMP4AuVNSvGdpCn-97" target="qBDFfCMP4AuVNSvGdpCn-75" edge="1">
          <mxGeometry relative="1" as="geometry" />
        </mxCell>
        <mxCell id="qBDFfCMP4AuVNSvGdpCn-97" value="Project" style="rounded=0;whiteSpace=wrap;html=1;fillColor=#dae8fc;strokeColor=#6c8ebf;fontStyle=1;fontSize=24;" parent="1" vertex="1">
          <mxGeometry x="-48" y="86" width="220" height="110.5" as="geometry" />
        </mxCell>
        <mxCell id="qBDFfCMP4AuVNSvGdpCn-98" style="edgeStyle=orthogonalEdgeStyle;shape=connector;rounded=0;orthogonalLoop=1;jettySize=auto;html=1;labelBackgroundColor=default;strokeColor=#82b366;strokeWidth=6;fontFamily=Helvetica;fontSize=11;fontColor=default;endArrow=classic;fillColor=#d5e8d4;" parent="1" source="qBDFfCMP4AuVNSvGdpCn-99" target="qBDFfCMP4AuVNSvGdpCn-101" edge="1">
          <mxGeometry relative="1" as="geometry" />
        </mxCell>
        <mxCell id="qBDFfCMP4AuVNSvGdpCn-99" value="generate Product Deployment manifest" style="rounded=0;whiteSpace=wrap;html=1;fillColor=#fff2cc;strokeColor=#d6b656;fontStyle=1;fontSize=24;" parent="1" vertex="1">
          <mxGeometry x="2193" y="820.25" width="220" height="110.5" as="geometry" />
        </mxCell>
        <mxCell id="qBDFfCMP4AuVNSvGdpCn-100" value="" style="edgeStyle=orthogonalEdgeStyle;shape=connector;rounded=0;orthogonalLoop=1;jettySize=auto;html=1;labelBackgroundColor=default;strokeColor=#82b366;strokeWidth=6;fontFamily=Helvetica;fontSize=11;fontColor=default;endArrow=classic;fillColor=#d5e8d4;" parent="1" source="qBDFfCMP4AuVNSvGdpCn-101" target="qBDFfCMP4AuVNSvGdpCn-103" edge="1">
          <mxGeometry relative="1" as="geometry" />
        </mxCell>
        <mxCell id="qBDFfCMP4AuVNSvGdpCn-101" value="commit to&lt;br&gt;project repository" style="rounded=0;whiteSpace=wrap;html=1;fillColor=#fff2cc;strokeColor=#d6b656;fontStyle=1;fontSize=24;" parent="1" vertex="1">
          <mxGeometry x="2442" y="641.5" width="220" height="110" as="geometry" />
        </mxCell>
        <mxCell id="qBDFfCMP4AuVNSvGdpCn-102" style="edgeStyle=orthogonalEdgeStyle;shape=connector;rounded=0;orthogonalLoop=1;jettySize=auto;html=1;labelBackgroundColor=default;strokeColor=#82b366;strokeWidth=6;fontFamily=Helvetica;fontSize=11;fontColor=default;endArrow=classic;fillColor=#d5e8d4;" parent="1" source="qBDFfCMP4AuVNSvGdpCn-103" target="qBDFfCMP4AuVNSvGdpCn-133" edge="1">
          <mxGeometry relative="1" as="geometry" />
        </mxCell>
        <mxCell id="qBDFfCMP4AuVNSvGdpCn-103" value="create pull&lt;br&gt;request" style="rounded=0;whiteSpace=wrap;html=1;fillColor=#fff2cc;strokeColor=#d6b656;fontStyle=1;fontSize=24;" parent="1" vertex="1">
          <mxGeometry x="2764" y="641.5" width="220" height="110" as="geometry" />
        </mxCell>
        <mxCell id="qBDFfCMP4AuVNSvGdpCn-104" value="" style="edgeStyle=orthogonalEdgeStyle;shape=connector;rounded=0;orthogonalLoop=1;jettySize=auto;html=1;labelBackgroundColor=default;strokeColor=#82b366;strokeWidth=6;fontFamily=Helvetica;fontSize=11;fontColor=default;endArrow=classic;fillColor=#d5e8d4;" parent="1" source="qBDFfCMP4AuVNSvGdpCn-105" target="qBDFfCMP4AuVNSvGdpCn-106" edge="1">
          <mxGeometry relative="1" as="geometry" />
        </mxCell>
        <mxCell id="qBDFfCMP4AuVNSvGdpCn-105" value="validate&lt;br&gt;product&lt;br&gt;configuration" style="rounded=0;whiteSpace=wrap;html=1;fillColor=#fff2cc;strokeColor=#d6b656;fontStyle=1;fontSize=24;" parent="1" vertex="1">
          <mxGeometry x="3015" y="820.25" width="220" height="110.5" as="geometry" />
        </mxCell>
        <mxCell id="qBDFfCMP4AuVNSvGdpCn-106" value="approve&lt;br&gt;pull request" style="rounded=0;whiteSpace=wrap;html=1;fillColor=#fff2cc;strokeColor=#d6b656;fontStyle=1;fontSize=24;" parent="1" vertex="1">
          <mxGeometry x="3311" y="820.25" width="220" height="110.5" as="geometry" />
        </mxCell>
        <mxCell id="qBDFfCMP4AuVNSvGdpCn-107" style="edgeStyle=orthogonalEdgeStyle;shape=connector;rounded=0;orthogonalLoop=1;jettySize=auto;html=1;labelBackgroundColor=default;strokeColor=#82b366;strokeWidth=6;fontFamily=Helvetica;fontSize=11;fontColor=default;endArrow=classic;fillColor=#d5e8d4;" parent="1" source="qBDFfCMP4AuVNSvGdpCn-108" target="qBDFfCMP4AuVNSvGdpCn-105" edge="1">
          <mxGeometry relative="1" as="geometry" />
        </mxCell>
        <mxCell id="qBDFfCMP4AuVNSvGdpCn-108" value="Product Deployment" style="rounded=0;whiteSpace=wrap;html=1;fillColor=#dae8fc;strokeColor=#6c8ebf;fontStyle=1;fontSize=24;" parent="1" vertex="1">
          <mxGeometry x="3015" y="86" width="220" height="110.5" as="geometry" />
        </mxCell>
        <mxCell id="qBDFfCMP4AuVNSvGdpCn-109" value="" style="edgeStyle=orthogonalEdgeStyle;shape=connector;rounded=0;orthogonalLoop=1;jettySize=auto;html=1;labelBackgroundColor=default;strokeColor=#82b366;strokeWidth=6;fontFamily=Helvetica;fontSize=11;fontColor=default;endArrow=classic;fillColor=#d5e8d4;" parent="1" source="qBDFfCMP4AuVNSvGdpCn-111" target="qBDFfCMP4AuVNSvGdpCn-113" edge="1">
          <mxGeometry relative="1" as="geometry">
            <Array as="points">
              <mxPoint x="3690" y="1055" />
            </Array>
          </mxGeometry>
        </mxCell>
        <mxCell id="qBDFfCMP4AuVNSvGdpCn-110" style="edgeStyle=orthogonalEdgeStyle;shape=connector;rounded=0;orthogonalLoop=1;jettySize=auto;html=1;labelBackgroundColor=default;strokeColor=#82b366;strokeWidth=6;fontFamily=Helvetica;fontSize=11;fontColor=default;endArrow=classic;fillColor=#d5e8d4;" parent="1" source="qBDFfCMP4AuVNSvGdpCn-111" target="qBDFfCMP4AuVNSvGdpCn-122" edge="1">
          <mxGeometry relative="1" as="geometry" />
        </mxCell>
        <mxCell id="qBDFfCMP4AuVNSvGdpCn-111" value="generate&lt;br&gt;OCM pipeline" style="rounded=0;whiteSpace=wrap;html=1;fillColor=#fff2cc;strokeColor=#d6b656;fontStyle=1;fontSize=24;" parent="1" vertex="1">
          <mxGeometry x="3580" y="820.12" width="220" height="110.75" as="geometry" />
        </mxCell>
        <mxCell id="qBDFfCMP4AuVNSvGdpCn-112" value="" style="edgeStyle=orthogonalEdgeStyle;shape=connector;rounded=0;orthogonalLoop=1;jettySize=auto;html=1;labelBackgroundColor=default;strokeColor=#82b366;strokeWidth=6;fontFamily=Helvetica;fontSize=11;fontColor=default;endArrow=classic;fillColor=#d5e8d4;" parent="1" source="qBDFfCMP4AuVNSvGdpCn-113" target="qBDFfCMP4AuVNSvGdpCn-115" edge="1">
          <mxGeometry relative="1" as="geometry" />
        </mxCell>
        <mxCell id="qBDFfCMP4AuVNSvGdpCn-113" value="create&lt;br&gt;Component Version" style="rounded=0;whiteSpace=wrap;html=1;fillColor=#fff2cc;strokeColor=#d6b656;fontStyle=1;fontSize=24;" parent="1" vertex="1">
          <mxGeometry x="3829" y="999.13" width="220" height="110.75" as="geometry" />
        </mxCell>
        <mxCell id="qBDFfCMP4AuVNSvGdpCn-114" value="" style="edgeStyle=orthogonalEdgeStyle;shape=connector;rounded=0;orthogonalLoop=1;jettySize=auto;html=1;labelBackgroundColor=default;strokeColor=#82b366;strokeWidth=6;fontFamily=Helvetica;fontSize=11;fontColor=default;endArrow=classic;fillColor=#d5e8d4;" parent="1" source="qBDFfCMP4AuVNSvGdpCn-115" target="qBDFfCMP4AuVNSvGdpCn-116" edge="1">
          <mxGeometry relative="1" as="geometry" />
        </mxCell>
        <mxCell id="qBDFfCMP4AuVNSvGdpCn-115" value="create&amp;nbsp;&lt;br&gt;Localization" style="rounded=0;whiteSpace=wrap;html=1;fillColor=#fff2cc;strokeColor=#d6b656;fontStyle=1;fontSize=24;" parent="1" vertex="1">
          <mxGeometry x="4130" y="999.13" width="220" height="110.75" as="geometry" />
        </mxCell>
        <mxCell id="qBDFfCMP4AuVNSvGdpCn-116" value="create&amp;nbsp;&lt;br&gt;Configuration" style="rounded=0;whiteSpace=wrap;html=1;fillColor=#fff2cc;strokeColor=#d6b656;fontStyle=1;fontSize=24;" parent="1" vertex="1">
          <mxGeometry x="4421" y="999.13" width="220" height="110.75" as="geometry" />
        </mxCell>
        <mxCell id="qBDFfCMP4AuVNSvGdpCn-117" style="edgeStyle=orthogonalEdgeStyle;shape=connector;rounded=0;orthogonalLoop=1;jettySize=auto;html=1;labelBackgroundColor=default;strokeColor=#82b366;strokeWidth=6;fontFamily=Helvetica;fontSize=11;fontColor=default;endArrow=classic;fillColor=#d5e8d4;" parent="1" source="qBDFfCMP4AuVNSvGdpCn-118" target="qBDFfCMP4AuVNSvGdpCn-134" edge="1">
          <mxGeometry relative="1" as="geometry" />
        </mxCell>
        <mxCell id="qBDFfCMP4AuVNSvGdpCn-118" value="create Kustomization" style="rounded=0;whiteSpace=wrap;html=1;fillColor=#fff2cc;strokeColor=#d6b656;fontStyle=1;fontSize=24;" parent="1" vertex="1">
          <mxGeometry x="4940" y="999.13" width="220" height="110.75" as="geometry" />
        </mxCell>
        <mxCell id="qBDFfCMP4AuVNSvGdpCn-119" value="reconcile Target" style="rounded=0;whiteSpace=wrap;html=1;fillColor=#fff2cc;strokeColor=#d6b656;fontStyle=1;fontSize=24;" parent="1" vertex="1">
          <mxGeometry x="1540" y="286" width="220" height="110.5" as="geometry" />
        </mxCell>
        <mxCell id="qBDFfCMP4AuVNSvGdpCn-120" style="edgeStyle=orthogonalEdgeStyle;shape=connector;rounded=0;orthogonalLoop=1;jettySize=auto;html=1;labelBackgroundColor=default;strokeColor=#82b366;strokeWidth=6;fontFamily=Helvetica;fontSize=11;fontColor=default;endArrow=classic;fillColor=#d5e8d4;entryX=0.5;entryY=0;entryDx=0;entryDy=0;" parent="1" source="qBDFfCMP4AuVNSvGdpCn-71" target="qBDFfCMP4AuVNSvGdpCn-111" edge="1">
          <mxGeometry relative="1" as="geometry">
            <mxPoint x="3455.1111111111104" y="820.1300000000001" as="targetPoint" />
          </mxGeometry>
        </mxCell>
        <mxCell id="qBDFfCMP4AuVNSvGdpCn-121" value="" style="edgeStyle=orthogonalEdgeStyle;shape=connector;rounded=0;orthogonalLoop=1;jettySize=auto;html=1;labelBackgroundColor=default;strokeColor=#82b366;strokeWidth=6;fontFamily=Helvetica;fontSize=11;fontColor=default;endArrow=classic;fillColor=#d5e8d4;" parent="1" source="qBDFfCMP4AuVNSvGdpCn-122" target="qBDFfCMP4AuVNSvGdpCn-118" edge="1">
          <mxGeometry relative="1" as="geometry">
            <Array as="points">
              <mxPoint x="4793" y="1061" />
            </Array>
          </mxGeometry>
        </mxCell>
        <mxCell id="qBDFfCMP4AuVNSvGdpCn-122" value="select Target" style="rounded=0;whiteSpace=wrap;html=1;fillColor=#fff2cc;strokeColor=#d6b656;fontStyle=1;fontSize=24;" parent="1" vertex="1">
          <mxGeometry x="4683" y="820.12" width="220" height="110.75" as="geometry" />
        </mxCell>
        <mxCell id="qBDFfCMP4AuVNSvGdpCn-123" value="&lt;span style=&quot;font-size: 32px;&quot;&gt;Operator Action&lt;/span&gt;" style="text;html=1;align=center;verticalAlign=middle;resizable=0;points=[];autosize=1;strokeColor=none;fillColor=none;fontSize=11;fontFamily=Helvetica;fontColor=default;fontStyle=1" parent="1" vertex="1">
          <mxGeometry x="-381" y="-49" width="260" height="50" as="geometry" />
        </mxCell>
        <mxCell id="qBDFfCMP4AuVNSvGdpCn-124" value="&lt;span style=&quot;font-size: 32px;&quot;&gt;Kubernetes Resource&lt;/span&gt;" style="text;html=1;align=center;verticalAlign=middle;resizable=0;points=[];autosize=1;strokeColor=none;fillColor=none;fontSize=11;fontFamily=Helvetica;fontColor=default;fontStyle=1" parent="1" vertex="1">
          <mxGeometry x="-430.5" y="113" width="349" height="50" as="geometry" />
        </mxCell>
        <mxCell id="qBDFfCMP4AuVNSvGdpCn-125" value="" style="edgeStyle=orthogonalEdgeStyle;shape=connector;rounded=0;orthogonalLoop=1;jettySize=auto;html=1;labelBackgroundColor=default;strokeColor=#82b366;strokeWidth=6;fontFamily=Helvetica;fontSize=11;fontColor=default;endArrow=classic;fillColor=#d5e8d4;" parent="1" source="qBDFfCMP4AuVNSvGdpCn-126" target="qBDFfCMP4AuVNSvGdpCn-76" edge="1">
          <mxGeometry relative="1" as="geometry" />
        </mxCell>
        <mxCell id="qBDFfCMP4AuVNSvGdpCn-126" value="create service&lt;br&gt;account" style="rounded=0;whiteSpace=wrap;html=1;fillColor=#fff2cc;strokeColor=#d6b656;fontStyle=1;fontSize=24;" parent="1" vertex="1">
          <mxGeometry x="256" y="281.75" width="220" height="110.5" as="geometry" />
        </mxCell>
        <mxCell id="qBDFfCMP4AuVNSvGdpCn-127" value="&lt;span style=&quot;font-size: 32px;&quot;&gt;MPAS Control Plane&lt;/span&gt;" style="text;html=1;align=center;verticalAlign=middle;resizable=0;points=[];autosize=1;strokeColor=none;fillColor=none;fontSize=11;fontFamily=Helvetica;fontColor=default;fontStyle=1;rotation=-90;" parent="1" vertex="1">
          <mxGeometry x="-644" y="671.5" width="325" height="50" as="geometry" />
        </mxCell>
        <mxCell id="qBDFfCMP4AuVNSvGdpCn-128" value="" style="shape=flexArrow;endArrow=classic;html=1;rounded=0;labelBackgroundColor=default;strokeColor=#666666;strokeWidth=6;fontFamily=Helvetica;fontSize=11;fontColor=default;fillColor=#f5f5f5;" parent="1" edge="1">
          <mxGeometry width="50" height="50" relative="1" as="geometry">
            <mxPoint x="-404" y="-280" as="sourcePoint" />
            <mxPoint x="5306" y="-280" as="targetPoint" />
          </mxGeometry>
        </mxCell>
        <mxCell id="qBDFfCMP4AuVNSvGdpCn-129" value="&lt;font style=&quot;font-size: 32px;&quot;&gt;TIME&lt;/font&gt;" style="text;html=1;align=center;verticalAlign=middle;resizable=0;points=[];autosize=1;strokeColor=none;fillColor=none;fontSize=11;fontFamily=Helvetica;fontColor=default;fontStyle=1" parent="1" vertex="1">
          <mxGeometry x="-296" y="-355" width="94" height="50" as="geometry" />
        </mxCell>
        <mxCell id="qBDFfCMP4AuVNSvGdpCn-130" value="&lt;font style=&quot;font-size: 50px;&quot;&gt;&lt;b&gt;MPAS Event Model : Project Setup &amp;amp; Product Deployment&lt;/b&gt;&lt;/font&gt;" style="text;html=1;align=center;verticalAlign=middle;resizable=0;points=[];autosize=1;strokeColor=none;fillColor=none;fontSize=11;fontFamily=Helvetica;fontColor=default;" parent="1" vertex="1">
          <mxGeometry x="-421" y="-493" width="1386" height="72" as="geometry" />
        </mxCell>
        <mxCell id="qBDFfCMP4AuVNSvGdpCn-131" value="&lt;h1&gt;&lt;span style=&quot;font-weight: normal;&quot;&gt;Product Description Component:&lt;/span&gt;&lt;/h1&gt;&lt;h1&gt;&lt;span style=&quot;font-weight: normal;&quot;&gt;Product Description must be created for a &quot;podinfo&quot; product. It contains&lt;/span&gt;&amp;nbsp; &lt;span style=&quot;font-weight: normal;&quot;&gt;microservices&lt;/span&gt;:&lt;/h1&gt;&lt;h1&gt;&lt;ol&gt;&lt;li&gt;&lt;span style=&quot;font-weight: normal;&quot;&gt;frontend&lt;/span&gt;&lt;/li&gt;&lt;li&gt;&lt;span style=&quot;font-weight: normal;&quot;&gt;backend&lt;/span&gt;&lt;/li&gt;&lt;li&gt;&lt;span style=&quot;font-weight: normal;&quot;&gt;cache&lt;/span&gt;&lt;/li&gt;&lt;/ol&gt;&lt;/h1&gt;&lt;h1&gt;&lt;span style=&quot;font-weight: normal;&quot;&gt;Cache (redis) should be defined in a separate component descriptor.&lt;/span&gt;&lt;/h1&gt;&lt;h1&gt;&lt;span style=&quot;font-weight: normal;&quot;&gt;Each service should have localization rules, configuration rules and a README.&lt;/span&gt;&lt;/h1&gt;&lt;h1&gt;&lt;span style=&quot;font-weight: normal;&quot;&gt;There should be a validation resource (conftest) that is executed against&amp;nbsp;Product Deployment and values file to ensure the change set can be merged.&lt;/span&gt;&lt;/h1&gt;&lt;h1&gt;&lt;span style=&quot;font-weight: normal;&quot;&gt;The configurable values are:&lt;/span&gt;&lt;/h1&gt;&lt;h1&gt;&lt;ul&gt;&lt;li&gt;&lt;span style=&quot;font-weight: normal;&quot;&gt;backend: replicas&lt;/span&gt;&lt;/li&gt;&lt;li&gt;&lt;span style=&quot;font-weight: normal;&quot;&gt;frontend: background color&lt;/span&gt;&lt;/li&gt;&lt;li&gt;&lt;span style=&quot;font-weight: normal;&quot;&gt;cache: resources&lt;/span&gt;&lt;/li&gt;&lt;/ul&gt;&lt;/h1&gt;&lt;h1&gt;&lt;span style=&quot;font-weight: normal;&quot;&gt;One targetRole should be defined for a Kubernetes cluster which supports ingress.&lt;/span&gt;&lt;/h1&gt;&lt;div&gt;&lt;br&gt;&lt;/div&gt;" style="text;html=1;strokeColor=default;fillColor=none;spacing=5;spacingTop=-20;whiteSpace=wrap;overflow=hidden;rounded=0;fontSize=11;fontFamily=Helvetica;fontColor=default;" parent="1" vertex="1">
          <mxGeometry x="-1660" y="-504" width="979" height="796" as="geometry" />
        </mxCell>
        <mxCell id="qBDFfCMP4AuVNSvGdpCn-132" value="Project&lt;br&gt;Ready" style="rounded=0;whiteSpace=wrap;html=1;fillColor=#1ba1e2;strokeColor=#006EAF;fontStyle=1;fontSize=24;fontColor=#ffffff;" parent="1" vertex="1">
          <mxGeometry x="1268" y="86" width="220" height="110.5" as="geometry" />
        </mxCell>
        <mxCell id="qBDFfCMP4AuVNSvGdpCn-133" value="Product&lt;br&gt;Deployment Generator Ready" style="rounded=0;whiteSpace=wrap;html=1;fillColor=#1ba1e2;strokeColor=#006EAF;fontStyle=1;fontSize=24;fontColor=#ffffff;" parent="1" vertex="1">
          <mxGeometry x="2763" y="86" width="220" height="110.5" as="geometry" />
        </mxCell>
        <mxCell id="qBDFfCMP4AuVNSvGdpCn-134" value="Product Deployment&lt;br&gt;Ready" style="rounded=0;whiteSpace=wrap;html=1;fillColor=#1ba1e2;strokeColor=#006EAF;fontStyle=1;fontSize=24;fontColor=#ffffff;" parent="1" vertex="1">
          <mxGeometry x="4939" y="86" width="220" height="110.5" as="geometry" />
        </mxCell>
        <mxCell id="qBDFfCMP4AuVNSvGdpCn-135" style="edgeStyle=orthogonalEdgeStyle;shape=connector;rounded=0;orthogonalLoop=1;jettySize=auto;html=1;labelBackgroundColor=default;strokeColor=#82b366;strokeWidth=6;fontFamily=Helvetica;fontSize=11;fontColor=default;endArrow=classic;fillColor=#d5e8d4;" parent="1" source="qBDFfCMP4AuVNSvGdpCn-136" target="qBDFfCMP4AuVNSvGdpCn-78" edge="1">
          <mxGeometry relative="1" as="geometry">
            <Array as="points">
              <mxPoint x="1378" y="692" />
            </Array>
          </mxGeometry>
        </mxCell>
        <mxCell id="qBDFfCMP4AuVNSvGdpCn-136" value="setup repository&lt;br&gt;directory &lt;br&gt;structure" style="rounded=0;whiteSpace=wrap;html=1;fillColor=#fff2cc;strokeColor=#d6b656;fontStyle=1;fontSize=24;" parent="1" vertex="1">
          <mxGeometry x="1078" y="637.5" width="220" height="110" as="geometry" />
        </mxCell>
        <mxCell id="qBDFfCMP4AuVNSvGdpCn-137" style="edgeStyle=orthogonalEdgeStyle;shape=connector;rounded=0;orthogonalLoop=1;jettySize=auto;html=1;entryX=0;entryY=0.5;entryDx=0;entryDy=0;labelBackgroundColor=default;strokeColor=#82b366;strokeWidth=6;fontFamily=Helvetica;fontSize=11;fontColor=default;endArrow=classic;fillColor=#d5e8d4;" parent="1" source="qBDFfCMP4AuVNSvGdpCn-76" target="qBDFfCMP4AuVNSvGdpCn-84" edge="1">
          <mxGeometry relative="1" as="geometry" />
        </mxCell>
        <mxCell id="qBDFfCMP4AuVNSvGdpCn-138" style="edgeStyle=orthogonalEdgeStyle;shape=connector;rounded=0;orthogonalLoop=1;jettySize=auto;html=1;labelBackgroundColor=default;strokeColor=#82b366;strokeWidth=2;fontFamily=Helvetica;fontSize=11;fontColor=default;endArrow=none;fillColor=#d5e8d4;dashed=1;startArrow=classic;startFill=1;endFill=0;" parent="1" source="qBDFfCMP4AuVNSvGdpCn-139" target="qBDFfCMP4AuVNSvGdpCn-119" edge="1">
          <mxGeometry relative="1" as="geometry" />
        </mxCell>
        <mxCell id="qBDFfCMP4AuVNSvGdpCn-139" value="target&lt;br&gt;counter ++" style="rounded=0;whiteSpace=wrap;html=1;fontFamily=Helvetica;fontSize=24;fillColor=#d5e8d4;strokeColor=#82b366;" parent="1" vertex="1">
          <mxGeometry x="1549" y="1165" width="202" height="101" as="geometry" />
        </mxCell>
        <mxCell id="qBDFfCMP4AuVNSvGdpCn-140" style="edgeStyle=orthogonalEdgeStyle;shape=connector;rounded=0;orthogonalLoop=1;jettySize=auto;html=1;dashed=1;labelBackgroundColor=default;strokeColor=#82b366;strokeWidth=2;fontFamily=Helvetica;fontSize=11;fontColor=default;endArrow=none;fillColor=#d5e8d4;startArrow=classic;startFill=1;endFill=0;" parent="1" source="qBDFfCMP4AuVNSvGdpCn-141" target="qBDFfCMP4AuVNSvGdpCn-132" edge="1">
          <mxGeometry relative="1" as="geometry">
            <Array as="points">
              <mxPoint x="1407" y="471" />
              <mxPoint x="1511" y="471" />
              <mxPoint x="1511" y="141" />
            </Array>
          </mxGeometry>
        </mxCell>
        <mxCell id="qBDFfCMP4AuVNSvGdpCn-141" value="project ready&lt;br&gt;counter ++" style="rounded=0;whiteSpace=wrap;html=1;fontFamily=Helvetica;fontSize=24;fillColor=#d5e8d4;strokeColor=#82b366;" parent="1" vertex="1">
          <mxGeometry x="1306" y="1165" width="202" height="101" as="geometry" />
        </mxCell>
        <mxCell id="qBDFfCMP4AuVNSvGdpCn-142" value="&lt;span style=&quot;font-size: 32px;&quot;&gt;Prometheus Metrics&lt;/span&gt;" style="text;html=1;align=center;verticalAlign=middle;resizable=0;points=[];autosize=1;strokeColor=none;fillColor=none;fontSize=11;fontFamily=Helvetica;fontColor=default;fontStyle=1" parent="1" vertex="1">
          <mxGeometry x="-392" y="1206" width="324" height="50" as="geometry" />
        </mxCell>
        <mxCell id="qBDFfCMP4AuVNSvGdpCn-143" style="edgeStyle=orthogonalEdgeStyle;shape=connector;rounded=0;orthogonalLoop=1;jettySize=auto;html=1;dashed=1;labelBackgroundColor=default;strokeColor=#82b366;strokeWidth=2;fontFamily=Helvetica;fontSize=11;fontColor=default;endArrow=none;fillColor=#d5e8d4;startArrow=classic;startFill=1;endFill=0;" parent="1" source="qBDFfCMP4AuVNSvGdpCn-144" target="qBDFfCMP4AuVNSvGdpCn-84" edge="1">
          <mxGeometry relative="1" as="geometry" />
        </mxCell>
        <mxCell id="qBDFfCMP4AuVNSvGdpCn-144" value="repository&lt;br&gt;counter ++" style="rounded=0;whiteSpace=wrap;html=1;fontFamily=Helvetica;fontSize=24;fillColor=#d5e8d4;strokeColor=#82b366;" parent="1" vertex="1">
          <mxGeometry x="763" y="1175" width="203" height="101" as="geometry" />
        </mxCell>
        <mxCell id="qBDFfCMP4AuVNSvGdpCn-145" style="edgeStyle=orthogonalEdgeStyle;shape=connector;rounded=0;orthogonalLoop=1;jettySize=auto;html=1;dashed=1;labelBackgroundColor=default;strokeColor=#82b366;strokeWidth=2;fontFamily=Helvetica;fontSize=11;fontColor=default;endArrow=none;fillColor=#d5e8d4;startArrow=classic;startFill=1;endFill=0;" parent="1" source="qBDFfCMP4AuVNSvGdpCn-146" target="qBDFfCMP4AuVNSvGdpCn-95" edge="1">
          <mxGeometry relative="1" as="geometry" />
        </mxCell>
        <mxCell id="qBDFfCMP4AuVNSvGdpCn-146" value="subscription&lt;br&gt;counter ++" style="rounded=0;whiteSpace=wrap;html=1;fontFamily=Helvetica;fontSize=24;fillColor=#d5e8d4;strokeColor=#82b366;" parent="1" vertex="1">
          <mxGeometry x="1846" y="1165" width="202" height="101" as="geometry" />
        </mxCell>
        <mxCell id="qBDFfCMP4AuVNSvGdpCn-147" style="edgeStyle=orthogonalEdgeStyle;shape=connector;rounded=0;orthogonalLoop=1;jettySize=auto;html=1;dashed=1;labelBackgroundColor=default;strokeColor=#82b366;strokeWidth=2;fontFamily=Helvetica;fontSize=11;fontColor=default;endArrow=none;fillColor=#d5e8d4;startArrow=classic;startFill=1;endFill=0;" parent="1" source="qBDFfCMP4AuVNSvGdpCn-148" target="qBDFfCMP4AuVNSvGdpCn-103" edge="1">
          <mxGeometry relative="1" as="geometry" />
        </mxCell>
        <mxCell id="qBDFfCMP4AuVNSvGdpCn-148" value="product instance&lt;br&gt;ready&lt;br&gt;counter ++" style="rounded=0;whiteSpace=wrap;html=1;fontFamily=Helvetica;fontSize=24;fillColor=#d5e8d4;strokeColor=#82b366;" parent="1" vertex="1">
          <mxGeometry x="2772" y="1165" width="202" height="101" as="geometry" />
        </mxCell>
        <mxCell id="qBDFfCMP4AuVNSvGdpCn-149" style="edgeStyle=orthogonalEdgeStyle;shape=connector;rounded=0;orthogonalLoop=1;jettySize=auto;html=1;dashed=1;labelBackgroundColor=default;strokeColor=#82b366;strokeWidth=2;fontFamily=Helvetica;fontSize=11;fontColor=default;endArrow=none;fillColor=#d5e8d4;startArrow=classic;startFill=1;endFill=0;" parent="1" source="qBDFfCMP4AuVNSvGdpCn-150" target="qBDFfCMP4AuVNSvGdpCn-75" edge="1">
          <mxGeometry relative="1" as="geometry" />
        </mxCell>
        <mxCell id="qBDFfCMP4AuVNSvGdpCn-150" value="project&lt;br&gt;counter ++" style="rounded=0;whiteSpace=wrap;html=1;fontFamily=Helvetica;fontSize=24;fillColor=#d5e8d4;strokeColor=#82b366;" parent="1" vertex="1">
          <mxGeometry x="-39" y="1175" width="202" height="101" as="geometry" />
        </mxCell>
        <mxCell id="qBDFfCMP4AuVNSvGdpCn-151" style="edgeStyle=orthogonalEdgeStyle;shape=connector;rounded=0;orthogonalLoop=1;jettySize=auto;html=1;dashed=1;labelBackgroundColor=default;strokeColor=#82b366;strokeWidth=2;fontFamily=Helvetica;fontSize=11;fontColor=default;endArrow=none;fillColor=#d5e8d4;startArrow=classic;startFill=1;endFill=0;" parent="1" source="qBDFfCMP4AuVNSvGdpCn-152" target="qBDFfCMP4AuVNSvGdpCn-99" edge="1">
          <mxGeometry relative="1" as="geometry" />
        </mxCell>
        <mxCell id="qBDFfCMP4AuVNSvGdpCn-152" value="product instance&lt;br&gt;counter ++" style="rounded=0;whiteSpace=wrap;html=1;fontFamily=Helvetica;fontSize=24;fillColor=#d5e8d4;strokeColor=#82b366;" parent="1" vertex="1">
          <mxGeometry x="2203" y="1165" width="202" height="101" as="geometry" />
        </mxCell>
        <mxCell id="qBDFfCMP4AuVNSvGdpCn-153" style="edgeStyle=orthogonalEdgeStyle;shape=connector;rounded=0;orthogonalLoop=1;jettySize=auto;html=1;dashed=1;labelBackgroundColor=default;strokeColor=#82b366;strokeWidth=2;fontFamily=Helvetica;fontSize=11;fontColor=default;endArrow=none;fillColor=#d5e8d4;startArrow=classic;startFill=1;endFill=0;" parent="1" source="qBDFfCMP4AuVNSvGdpCn-154" target="qBDFfCMP4AuVNSvGdpCn-105" edge="1">
          <mxGeometry relative="1" as="geometry" />
        </mxCell>
        <mxCell id="qBDFfCMP4AuVNSvGdpCn-154" value="product deployment&lt;br&gt;counter ++" style="rounded=0;whiteSpace=wrap;html=1;fontFamily=Helvetica;fontSize=24;fillColor=#d5e8d4;strokeColor=#82b366;" parent="1" vertex="1">
          <mxGeometry x="3023" y="1165" width="202" height="101" as="geometry" />
        </mxCell>
        <mxCell id="qBDFfCMP4AuVNSvGdpCn-155" style="edgeStyle=orthogonalEdgeStyle;shape=connector;rounded=0;orthogonalLoop=1;jettySize=auto;html=1;dashed=1;labelBackgroundColor=default;strokeColor=#82b366;strokeWidth=2;fontFamily=Helvetica;fontSize=11;fontColor=default;endArrow=none;fillColor=#d5e8d4;exitX=0.75;exitY=0;exitDx=0;exitDy=0;startArrow=classic;startFill=1;endFill=0;" parent="1" source="qBDFfCMP4AuVNSvGdpCn-156" target="qBDFfCMP4AuVNSvGdpCn-105" edge="1">
          <mxGeometry relative="1" as="geometry">
            <Array as="points">
              <mxPoint x="3237" y="1116" />
              <mxPoint x="3157" y="1116" />
            </Array>
          </mxGeometry>
        </mxCell>
        <mxCell id="qBDFfCMP4AuVNSvGdpCn-156" value="product deployment&lt;br&gt;valid counter ++" style="rounded=0;whiteSpace=wrap;html=1;fontFamily=Helvetica;fontSize=24;fillColor=#d5e8d4;strokeColor=#82b366;" parent="1" vertex="1">
          <mxGeometry x="3085" y="1301" width="202" height="101" as="geometry" />
        </mxCell>
        <mxCell id="qBDFfCMP4AuVNSvGdpCn-157" style="edgeStyle=orthogonalEdgeStyle;shape=connector;rounded=0;orthogonalLoop=1;jettySize=auto;html=1;dashed=1;labelBackgroundColor=default;strokeColor=#82b366;strokeWidth=2;fontFamily=Helvetica;fontSize=11;fontColor=default;endArrow=none;fillColor=#d5e8d4;startArrow=classic;startFill=1;endFill=0;" parent="1" source="qBDFfCMP4AuVNSvGdpCn-158" target="qBDFfCMP4AuVNSvGdpCn-106" edge="1">
          <mxGeometry relative="1" as="geometry" />
        </mxCell>
        <mxCell id="qBDFfCMP4AuVNSvGdpCn-158" value="product deployment&lt;br&gt;approved &lt;br&gt;counter ++" style="rounded=0;whiteSpace=wrap;html=1;fontFamily=Helvetica;fontSize=24;fillColor=#d5e8d4;strokeColor=#82b366;" parent="1" vertex="1">
          <mxGeometry x="3299" y="1165" width="240" height="101" as="geometry" />
        </mxCell>
        <mxCell id="qBDFfCMP4AuVNSvGdpCn-159" style="edgeStyle=orthogonalEdgeStyle;shape=connector;rounded=0;orthogonalLoop=1;jettySize=auto;html=1;entryX=0.25;entryY=1;entryDx=0;entryDy=0;dashed=1;labelBackgroundColor=default;strokeColor=#82b366;strokeWidth=2;fontFamily=Helvetica;fontSize=11;fontColor=default;endArrow=none;fillColor=#d5e8d4;startArrow=classic;startFill=1;endFill=0;" parent="1" source="qBDFfCMP4AuVNSvGdpCn-160" target="qBDFfCMP4AuVNSvGdpCn-111" edge="1">
          <mxGeometry relative="1" as="geometry">
            <Array as="points">
              <mxPoint x="3700" y="1100" />
              <mxPoint x="3635" y="1100" />
            </Array>
          </mxGeometry>
        </mxCell>
        <mxCell id="qBDFfCMP4AuVNSvGdpCn-160" value="product deployment&lt;br&gt;merged&lt;br&gt;counter ++" style="rounded=0;whiteSpace=wrap;html=1;fontFamily=Helvetica;fontSize=24;fillColor=#d5e8d4;strokeColor=#82b366;" parent="1" vertex="1">
          <mxGeometry x="3580" y="1165" width="240" height="101" as="geometry" />
        </mxCell>
        <mxCell id="qBDFfCMP4AuVNSvGdpCn-161" style="edgeStyle=orthogonalEdgeStyle;shape=connector;rounded=0;orthogonalLoop=1;jettySize=auto;html=1;entryX=0.25;entryY=1;entryDx=0;entryDy=0;dashed=1;labelBackgroundColor=default;strokeColor=#82b366;strokeWidth=2;fontFamily=Helvetica;fontSize=11;fontColor=default;endArrow=none;fillColor=#d5e8d4;startArrow=classic;startFill=1;endFill=0;" parent="1" source="qBDFfCMP4AuVNSvGdpCn-162" target="qBDFfCMP4AuVNSvGdpCn-122" edge="1">
          <mxGeometry relative="1" as="geometry">
            <Array as="points">
              <mxPoint x="4803" y="1086" />
              <mxPoint x="4738" y="1086" />
            </Array>
          </mxGeometry>
        </mxCell>
        <mxCell id="qBDFfCMP4AuVNSvGdpCn-162" value="product deployment&lt;br&gt;target selected&lt;br&gt;counter ++" style="rounded=0;whiteSpace=wrap;html=1;fontFamily=Helvetica;fontSize=24;fillColor=#d5e8d4;strokeColor=#82b366;" parent="1" vertex="1">
          <mxGeometry x="4683" y="1157" width="240" height="101" as="geometry" />
        </mxCell>
        <mxCell id="qBDFfCMP4AuVNSvGdpCn-163" style="edgeStyle=orthogonalEdgeStyle;shape=connector;rounded=0;orthogonalLoop=1;jettySize=auto;html=1;dashed=1;labelBackgroundColor=default;strokeColor=#82b366;strokeWidth=2;fontFamily=Helvetica;fontSize=11;fontColor=default;endArrow=none;fillColor=#d5e8d4;startArrow=classic;startFill=1;endFill=0;" parent="1" source="qBDFfCMP4AuVNSvGdpCn-164" target="qBDFfCMP4AuVNSvGdpCn-118" edge="1">
          <mxGeometry relative="1" as="geometry" />
        </mxCell>
        <mxCell id="qBDFfCMP4AuVNSvGdpCn-164" value="product deployment&lt;br&gt;ready counter ++" style="rounded=0;whiteSpace=wrap;html=1;fontFamily=Helvetica;fontSize=24;fillColor=#d5e8d4;strokeColor=#82b366;" parent="1" vertex="1">
          <mxGeometry x="4930" y="1310" width="240" height="101" as="geometry" />
        </mxCell>
        <mxCell id="qBDFfCMP4AuVNSvGdpCn-165" value="" style="endArrow=none;dashed=1;html=1;rounded=0;labelBackgroundColor=default;strokeColor=#b85450;strokeWidth=5;fontFamily=Helvetica;fontSize=11;fontColor=default;fillColor=#f8cecc;shape=connector;" parent="1" source="qBDFfCMP4AuVNSvGdpCn-167" edge="1">
          <mxGeometry width="50" height="50" relative="1" as="geometry">
            <mxPoint x="2130" y="1383" as="sourcePoint" />
            <mxPoint x="2130" y="-470" as="targetPoint" />
          </mxGeometry>
        </mxCell>
        <mxCell id="qBDFfCMP4AuVNSvGdpCn-166" value="" style="endArrow=none;dashed=1;html=1;rounded=0;labelBackgroundColor=default;strokeColor=#b85450;strokeWidth=5;fontFamily=Helvetica;fontSize=11;fontColor=default;fillColor=#f8cecc;shape=connector;" parent="1" target="qBDFfCMP4AuVNSvGdpCn-167" edge="1">
          <mxGeometry width="50" height="50" relative="1" as="geometry">
            <mxPoint x="2130" y="1383" as="sourcePoint" />
            <mxPoint x="2130" y="-470" as="targetPoint" />
          </mxGeometry>
        </mxCell>
        <mxCell id="qBDFfCMP4AuVNSvGdpCn-167" value="" style="ellipse;whiteSpace=wrap;html=1;aspect=fixed;fontFamily=Helvetica;fontSize=11;fillColor=#f8cecc;strokeColor=#b85450;strokeWidth=5;" parent="1" vertex="1">
          <mxGeometry x="2089" y="-483" width="80" height="80" as="geometry" />
        </mxCell>
        <mxCell id="qBDFfCMP4AuVNSvGdpCn-168" value="Project Setup" style="text;html=1;align=center;verticalAlign=middle;resizable=0;points=[];autosize=1;strokeColor=none;fillColor=none;fontSize=32;fontFamily=Helvetica;fontColor=default;fontStyle=1" parent="1" vertex="1">
          <mxGeometry x="1843" y="-468" width="224" height="50" as="geometry" />
        </mxCell>
        <mxCell id="qBDFfCMP4AuVNSvGdpCn-169" value="Product Deployment" style="text;html=1;align=center;verticalAlign=middle;resizable=0;points=[];autosize=1;strokeColor=none;fillColor=none;fontSize=32;fontFamily=Helvetica;fontColor=default;fontStyle=1" parent="1" vertex="1">
          <mxGeometry x="2191" y="-468" width="331" height="50" as="geometry" />
        </mxCell>
        <mxCell id="lKdnSuT2KFTi1Tn7JFJN-1" value="validate&lt;br&gt;product&lt;br&gt;configuration" style="rounded=0;whiteSpace=wrap;html=1;fillColor=#fff2cc;strokeColor=#d6b656;fontStyle=1;fontSize=24;" parent="1" vertex="1">
          <mxGeometry x="3025" y="830.25" width="220" height="110.5" as="geometry" />
        </mxCell>
      </root>
    </mxGraphModel>
  </diagram>
  <diagram id="cNBf3dphFHl21WmH_SpL" name="bootstrap">
    <mxGraphModel grid="0" page="1" gridSize="10" guides="1" tooltips="1" connect="1" arrows="1" fold="1" pageScale="1" pageWidth="850" pageHeight="1100" math="0" shadow="0">
      <root>
        <mxCell id="0" />
        <mxCell id="1" parent="0" />
        <mxCell id="M8VXxiBGEfHf2mh--UUg-1" value="Project Controller" style="text;html=1;align=center;verticalAlign=middle;resizable=0;points=[];autosize=1;strokeColor=none;fillColor=none;fontSize=32;container=1;movable=0;rotatable=0;deletable=0;editable=0;locked=1;connectable=0;" vertex="1" parent="1">
          <mxGeometry x="-358" y="312.5" width="265" height="50" as="geometry" />
        </mxCell>
        <mxCell id="M8VXxiBGEfHf2mh--UUg-2" value="Git Controller" style="text;html=1;align=center;verticalAlign=middle;resizable=0;points=[];autosize=1;strokeColor=none;fillColor=none;fontSize=32;container=1;movable=0;rotatable=0;deletable=0;editable=0;locked=1;connectable=0;" vertex="1" parent="1">
          <mxGeometry x="-329" y="671.5" width="207" height="50" as="geometry" />
        </mxCell>
        <mxCell id="M8VXxiBGEfHf2mh--UUg-3" value="Product Controller" style="text;html=1;align=center;verticalAlign=middle;resizable=0;points=[];autosize=1;strokeColor=none;fillColor=none;fontSize=32;container=1;movable=0;rotatable=0;deletable=0;editable=0;locked=1;connectable=0;" vertex="1" parent="1">
          <mxGeometry x="-363.5" y="850.5" width="276" height="50" as="geometry" />
        </mxCell>
        <mxCell id="M8VXxiBGEfHf2mh--UUg-4" value="OCM Controller" style="text;html=1;align=center;verticalAlign=middle;resizable=0;points=[];autosize=1;strokeColor=none;fillColor=none;fontSize=32;container=1;movable=0;rotatable=0;deletable=0;editable=0;locked=1;connectable=0;" vertex="1" parent="1">
          <mxGeometry x="-341.5" y="1029.5" width="240" height="50" as="geometry" />
        </mxCell>
        <mxCell id="M8VXxiBGEfHf2mh--UUg-5" style="edgeStyle=orthogonalEdgeStyle;rounded=0;orthogonalLoop=1;jettySize=auto;html=1;strokeWidth=6;fillColor=#f8cecc;strokeColor=#b85450;" edge="1" parent="1" source="M8VXxiBGEfHf2mh--UUg-7" target="M8VXxiBGEfHf2mh--UUg-10">
          <mxGeometry relative="1" as="geometry" />
        </mxCell>
        <mxCell id="M8VXxiBGEfHf2mh--UUg-6" value="" style="edgeStyle=orthogonalEdgeStyle;shape=connector;rounded=0;orthogonalLoop=1;jettySize=auto;html=1;labelBackgroundColor=default;strokeColor=#82b366;strokeWidth=6;fontFamily=Helvetica;fontSize=11;fontColor=default;endArrow=classic;fillColor=#d5e8d4;" edge="1" parent="1" source="M8VXxiBGEfHf2mh--UUg-7" target="M8VXxiBGEfHf2mh--UUg-46">
          <mxGeometry relative="1" as="geometry" />
        </mxCell>
        <mxCell id="M8VXxiBGEfHf2mh--UUg-7" value="transfer&lt;br&gt;component" style="rounded=0;whiteSpace=wrap;html=1;fillColor=#f8cecc;strokeColor=#b85450;fontStyle=1;fontSize=24;" vertex="1" parent="1">
          <mxGeometry x="-48" y="-79" width="220" height="110" as="geometry" />
        </mxCell>
        <mxCell id="M8VXxiBGEfHf2mh--UUg-8" value="" style="edgeStyle=orthogonalEdgeStyle;shape=connector;rounded=0;orthogonalLoop=1;jettySize=auto;html=1;labelBackgroundColor=default;strokeColor=#b85450;strokeWidth=6;fontFamily=Helvetica;fontSize=11;fontColor=default;endArrow=classic;fillColor=#f8cecc;" edge="1" parent="1" source="M8VXxiBGEfHf2mh--UUg-10" target="M8VXxiBGEfHf2mh--UUg-13">
          <mxGeometry relative="1" as="geometry" />
        </mxCell>
        <mxCell id="M8VXxiBGEfHf2mh--UUg-9" value="" style="edgeStyle=orthogonalEdgeStyle;shape=connector;rounded=0;orthogonalLoop=1;jettySize=auto;html=1;labelBackgroundColor=default;strokeColor=#82b366;strokeWidth=6;fontFamily=Helvetica;fontSize=11;fontColor=default;endArrow=classic;fillColor=#d5e8d4;" edge="1" parent="1" source="M8VXxiBGEfHf2mh--UUg-10" target="M8VXxiBGEfHf2mh--UUg-39">
          <mxGeometry relative="1" as="geometry" />
        </mxCell>
        <mxCell id="M8VXxiBGEfHf2mh--UUg-10" value="provide a&lt;br&gt;deployment&lt;br&gt;&amp;nbsp;target" style="rounded=0;whiteSpace=wrap;html=1;fillColor=#f8cecc;strokeColor=#b85450;fontStyle=1;fontSize=24;" vertex="1" parent="1">
          <mxGeometry x="1540" y="-79" width="220" height="110" as="geometry" />
        </mxCell>
        <mxCell id="M8VXxiBGEfHf2mh--UUg-11" value="" style="edgeStyle=orthogonalEdgeStyle;shape=connector;rounded=0;orthogonalLoop=1;jettySize=auto;html=1;labelBackgroundColor=default;strokeColor=#b85450;strokeWidth=6;fontFamily=Helvetica;fontSize=11;fontColor=default;endArrow=classic;fillColor=#f8cecc;" edge="1" parent="1" source="M8VXxiBGEfHf2mh--UUg-13" target="M8VXxiBGEfHf2mh--UUg-16">
          <mxGeometry relative="1" as="geometry" />
        </mxCell>
        <mxCell id="M8VXxiBGEfHf2mh--UUg-12" value="" style="edgeStyle=orthogonalEdgeStyle;shape=connector;rounded=0;orthogonalLoop=1;jettySize=auto;html=1;labelBackgroundColor=default;strokeColor=#82b366;strokeWidth=6;fontFamily=Helvetica;fontSize=11;fontColor=default;endArrow=classic;fillColor=#d5e8d4;" edge="1" parent="1" source="M8VXxiBGEfHf2mh--UUg-13" target="M8VXxiBGEfHf2mh--UUg-41">
          <mxGeometry relative="1" as="geometry" />
        </mxCell>
        <mxCell id="M8VXxiBGEfHf2mh--UUg-13" value="subscribe to&lt;br&gt;product" style="rounded=0;whiteSpace=wrap;html=1;fillColor=#f8cecc;strokeColor=#b85450;fontStyle=1;fontSize=24;" vertex="1" parent="1">
          <mxGeometry x="1837" y="-79" width="220" height="110" as="geometry" />
        </mxCell>
        <mxCell id="M8VXxiBGEfHf2mh--UUg-14" style="edgeStyle=orthogonalEdgeStyle;shape=connector;rounded=0;orthogonalLoop=1;jettySize=auto;html=1;labelBackgroundColor=default;strokeColor=#b85450;strokeWidth=6;fontFamily=Helvetica;fontSize=11;fontColor=default;endArrow=classic;fillColor=#f8cecc;" edge="1" parent="1" source="M8VXxiBGEfHf2mh--UUg-16" target="M8VXxiBGEfHf2mh--UUg-19">
          <mxGeometry relative="1" as="geometry" />
        </mxCell>
        <mxCell id="M8VXxiBGEfHf2mh--UUg-15" value="" style="edgeStyle=orthogonalEdgeStyle;shape=connector;rounded=0;orthogonalLoop=1;jettySize=auto;html=1;labelBackgroundColor=default;strokeColor=#82b366;strokeWidth=6;fontFamily=Helvetica;fontSize=11;fontColor=default;endArrow=classic;fillColor=#d5e8d4;" edge="1" parent="1" source="M8VXxiBGEfHf2mh--UUg-16" target="M8VXxiBGEfHf2mh--UUg-43">
          <mxGeometry relative="1" as="geometry" />
        </mxCell>
        <mxCell id="M8VXxiBGEfHf2mh--UUg-16" value="initialise&lt;br&gt;product" style="rounded=0;whiteSpace=wrap;html=1;fillColor=#f8cecc;strokeColor=#b85450;fontStyle=1;fontSize=24;" vertex="1" parent="1">
          <mxGeometry x="2191" y="-79" width="220" height="110" as="geometry" />
        </mxCell>
        <mxCell id="M8VXxiBGEfHf2mh--UUg-17" style="edgeStyle=orthogonalEdgeStyle;shape=connector;rounded=0;orthogonalLoop=1;jettySize=auto;html=1;labelBackgroundColor=default;strokeColor=#b85450;strokeWidth=6;fontFamily=Helvetica;fontSize=11;fontColor=default;endArrow=classic;fillColor=#f8cecc;" edge="1" parent="1" source="M8VXxiBGEfHf2mh--UUg-19" target="M8VXxiBGEfHf2mh--UUg-20">
          <mxGeometry relative="1" as="geometry" />
        </mxCell>
        <mxCell id="M8VXxiBGEfHf2mh--UUg-18" value="" style="edgeStyle=orthogonalEdgeStyle;shape=connector;rounded=0;orthogonalLoop=1;jettySize=auto;html=1;labelBackgroundColor=default;strokeColor=#82b366;strokeWidth=6;fontFamily=Helvetica;fontSize=11;fontColor=default;endArrow=classic;fillColor=#d5e8d4;" edge="1" parent="1" source="M8VXxiBGEfHf2mh--UUg-19" target="M8VXxiBGEfHf2mh--UUg-57">
          <mxGeometry relative="1" as="geometry" />
        </mxCell>
        <mxCell id="M8VXxiBGEfHf2mh--UUg-19" value="configure&lt;br style=&quot;font-size: 24px;&quot;&gt;product" style="rounded=0;whiteSpace=wrap;html=1;fillColor=#f8cecc;strokeColor=#b85450;fontStyle=1;fontSize=24;" vertex="1" parent="1">
          <mxGeometry x="3015" y="-79" width="220" height="110" as="geometry" />
        </mxCell>
        <mxCell id="M8VXxiBGEfHf2mh--UUg-20" value="deploy product&lt;br&gt;(merge PR)" style="rounded=0;whiteSpace=wrap;html=1;fillColor=#f8cecc;strokeColor=#b85450;fontStyle=1;fontSize=24;" vertex="1" parent="1">
          <mxGeometry x="3580" y="-79" width="220" height="110" as="geometry" />
        </mxCell>
        <mxCell id="M8VXxiBGEfHf2mh--UUg-21" value="" style="rounded=0;whiteSpace=wrap;html=1;movable=1;resizable=1;rotatable=1;deletable=1;editable=1;locked=0;connectable=1;" vertex="1" parent="1">
          <mxGeometry x="-421" y="261" width="5734" height="153" as="geometry" />
        </mxCell>
        <mxCell id="M8VXxiBGEfHf2mh--UUg-22" value="Project Controller" style="text;html=1;align=center;verticalAlign=middle;resizable=0;points=[];autosize=1;strokeColor=none;fillColor=none;fontSize=32;container=1;movable=0;rotatable=0;deletable=0;editable=0;locked=1;connectable=0;" vertex="1" parent="1">
          <mxGeometry x="-358" y="312.5" width="265" height="50" as="geometry" />
        </mxCell>
        <mxCell id="M8VXxiBGEfHf2mh--UUg-23" value="" style="edgeStyle=orthogonalEdgeStyle;shape=connector;rounded=0;orthogonalLoop=1;jettySize=auto;html=1;labelBackgroundColor=default;strokeColor=#82b366;strokeWidth=6;fontFamily=Helvetica;fontSize=11;fontColor=default;endArrow=classic;fillColor=#d5e8d4;" edge="1" parent="1" source="M8VXxiBGEfHf2mh--UUg-24" target="M8VXxiBGEfHf2mh--UUg-75">
          <mxGeometry relative="1" as="geometry" />
        </mxCell>
        <mxCell id="M8VXxiBGEfHf2mh--UUg-24" value="create project&lt;br&gt;namespace" style="rounded=0;whiteSpace=wrap;html=1;fillColor=#fff2cc;strokeColor=#d6b656;fontStyle=1;fontSize=24;" vertex="1" parent="1">
          <mxGeometry x="-49" y="282.25" width="220" height="110" as="geometry" />
        </mxCell>
        <mxCell id="M8VXxiBGEfHf2mh--UUg-25" value="create rbac" style="rounded=0;whiteSpace=wrap;html=1;fillColor=#fff2cc;strokeColor=#d6b656;fontStyle=1;fontSize=24;" vertex="1" parent="1">
          <mxGeometry x="560" y="281.75" width="220" height="110.5" as="geometry" />
        </mxCell>
        <mxCell id="M8VXxiBGEfHf2mh--UUg-26" style="edgeStyle=orthogonalEdgeStyle;shape=connector;rounded=0;orthogonalLoop=1;jettySize=auto;html=1;entryX=0.5;entryY=1;entryDx=0;entryDy=0;labelBackgroundColor=default;strokeColor=#82b366;strokeWidth=6;fontFamily=Helvetica;fontSize=11;fontColor=default;endArrow=classic;fillColor=#d5e8d4;" edge="1" parent="1" source="M8VXxiBGEfHf2mh--UUg-27" target="M8VXxiBGEfHf2mh--UUg-81">
          <mxGeometry relative="1" as="geometry" />
        </mxCell>
        <mxCell id="M8VXxiBGEfHf2mh--UUg-27" value="create flux&lt;br&gt;resources" style="rounded=0;whiteSpace=wrap;html=1;fillColor=#fff2cc;strokeColor=#d6b656;fontStyle=1;fontSize=24;" vertex="1" parent="1">
          <mxGeometry x="1268" y="282.25" width="220" height="110.5" as="geometry" />
        </mxCell>
        <mxCell id="M8VXxiBGEfHf2mh--UUg-28" value="" style="rounded=0;whiteSpace=wrap;html=1;movable=1;resizable=1;rotatable=1;deletable=1;editable=1;locked=0;connectable=1;" vertex="1" parent="1">
          <mxGeometry x="-421" y="440" width="5734" height="153" as="geometry" />
        </mxCell>
        <mxCell id="M8VXxiBGEfHf2mh--UUg-29" value="Replication Controller" style="text;html=1;align=center;verticalAlign=middle;resizable=1;points=[];autosize=1;strokeColor=none;fillColor=none;fontSize=32;container=1;movable=1;rotatable=1;deletable=1;editable=1;locked=0;connectable=1;" vertex="1" parent="1">
          <mxGeometry x="-387.5" y="491.5" width="324" height="50" as="geometry" />
        </mxCell>
        <mxCell id="M8VXxiBGEfHf2mh--UUg-30" value="" style="rounded=0;whiteSpace=wrap;html=1;movable=1;resizable=1;rotatable=1;deletable=1;editable=1;locked=0;connectable=1;" vertex="1" parent="1">
          <mxGeometry x="-421" y="620" width="5733" height="153" as="geometry" />
        </mxCell>
        <mxCell id="M8VXxiBGEfHf2mh--UUg-31" value="Git Controller" style="text;html=1;align=center;verticalAlign=middle;resizable=0;points=[];autosize=1;strokeColor=none;fillColor=none;fontSize=32;container=1;movable=0;rotatable=0;deletable=0;editable=0;locked=1;connectable=0;" vertex="1" parent="1">
          <mxGeometry x="-329" y="671.5" width="207" height="50" as="geometry" />
        </mxCell>
        <mxCell id="M8VXxiBGEfHf2mh--UUg-32" style="edgeStyle=orthogonalEdgeStyle;shape=connector;rounded=0;orthogonalLoop=1;jettySize=auto;html=1;entryX=0;entryY=0.5;entryDx=0;entryDy=0;labelBackgroundColor=default;strokeColor=#82b366;strokeWidth=6;fontFamily=Helvetica;fontSize=11;fontColor=default;endArrow=classic;fillColor=#d5e8d4;" edge="1" parent="1" source="M8VXxiBGEfHf2mh--UUg-33" target="M8VXxiBGEfHf2mh--UUg-85">
          <mxGeometry relative="1" as="geometry" />
        </mxCell>
        <mxCell id="M8VXxiBGEfHf2mh--UUg-33" value="create repository" style="rounded=0;whiteSpace=wrap;html=1;fillColor=#fff2cc;strokeColor=#d6b656;fontStyle=1;fontSize=24;" vertex="1" parent="1">
          <mxGeometry x="754" y="638" width="220" height="110" as="geometry" />
        </mxCell>
        <mxCell id="M8VXxiBGEfHf2mh--UUg-34" value="" style="rounded=0;whiteSpace=wrap;html=1;movable=1;resizable=1;rotatable=1;deletable=1;editable=1;locked=0;connectable=1;" vertex="1" parent="1">
          <mxGeometry x="-421" y="799" width="5733" height="153" as="geometry" />
        </mxCell>
        <mxCell id="M8VXxiBGEfHf2mh--UUg-35" value="Product Controller" style="text;html=1;align=center;verticalAlign=middle;resizable=0;points=[];autosize=1;strokeColor=none;fillColor=none;fontSize=32;container=1;movable=0;rotatable=0;deletable=0;editable=0;locked=1;connectable=0;" vertex="1" parent="1">
          <mxGeometry x="-363.5" y="850.5" width="276" height="50" as="geometry" />
        </mxCell>
        <mxCell id="M8VXxiBGEfHf2mh--UUg-36" value="" style="rounded=0;whiteSpace=wrap;html=1;movable=1;resizable=1;rotatable=1;deletable=1;editable=1;locked=0;connectable=1;" vertex="1" parent="1">
          <mxGeometry x="-421" y="978" width="5737" height="153" as="geometry" />
        </mxCell>
        <mxCell id="M8VXxiBGEfHf2mh--UUg-37" value="OCM Controller" style="text;html=1;align=center;verticalAlign=middle;resizable=0;points=[];autosize=1;strokeColor=none;fillColor=none;fontSize=32;container=1;movable=0;rotatable=0;deletable=0;editable=0;locked=1;connectable=0;" vertex="1" parent="1">
          <mxGeometry x="-341.5" y="1029.5" width="240" height="50" as="geometry" />
        </mxCell>
        <mxCell id="M8VXxiBGEfHf2mh--UUg-38" value="" style="edgeStyle=orthogonalEdgeStyle;shape=connector;rounded=0;orthogonalLoop=1;jettySize=auto;html=1;labelBackgroundColor=default;strokeColor=#82b366;strokeWidth=6;fontFamily=Helvetica;fontSize=11;fontColor=default;endArrow=classic;fillColor=#d5e8d4;" edge="1" parent="1" source="M8VXxiBGEfHf2mh--UUg-39" target="M8VXxiBGEfHf2mh--UUg-68">
          <mxGeometry relative="1" as="geometry" />
        </mxCell>
        <mxCell id="M8VXxiBGEfHf2mh--UUg-39" value="Target" style="rounded=0;whiteSpace=wrap;html=1;fillColor=#dae8fc;strokeColor=#6c8ebf;fontStyle=1;fontSize=24;" vertex="1" parent="1">
          <mxGeometry x="1540" y="86" width="220" height="110.5" as="geometry" />
        </mxCell>
        <mxCell id="M8VXxiBGEfHf2mh--UUg-40" style="edgeStyle=orthogonalEdgeStyle;shape=connector;rounded=0;orthogonalLoop=1;jettySize=auto;html=1;labelBackgroundColor=default;strokeColor=#82b366;strokeWidth=6;fontFamily=Helvetica;fontSize=11;fontColor=default;endArrow=classic;fillColor=#d5e8d4;" edge="1" parent="1" source="M8VXxiBGEfHf2mh--UUg-41" target="M8VXxiBGEfHf2mh--UUg-44">
          <mxGeometry relative="1" as="geometry" />
        </mxCell>
        <mxCell id="M8VXxiBGEfHf2mh--UUg-41" value="Subscription" style="rounded=0;whiteSpace=wrap;html=1;fillColor=#dae8fc;strokeColor=#6c8ebf;fontStyle=1;fontSize=24;" vertex="1" parent="1">
          <mxGeometry x="1837" y="86" width="220" height="110.5" as="geometry" />
        </mxCell>
        <mxCell id="M8VXxiBGEfHf2mh--UUg-42" style="edgeStyle=orthogonalEdgeStyle;shape=connector;rounded=0;orthogonalLoop=1;jettySize=auto;html=1;labelBackgroundColor=default;strokeColor=#82b366;strokeWidth=6;fontFamily=Helvetica;fontSize=11;fontColor=default;endArrow=classic;fillColor=#d5e8d4;" edge="1" parent="1" source="M8VXxiBGEfHf2mh--UUg-43" target="M8VXxiBGEfHf2mh--UUg-48">
          <mxGeometry relative="1" as="geometry" />
        </mxCell>
        <mxCell id="M8VXxiBGEfHf2mh--UUg-43" value="Product&lt;br&gt;Deployment Generator" style="rounded=0;whiteSpace=wrap;html=1;fillColor=#dae8fc;strokeColor=#6c8ebf;fontStyle=1;fontSize=24;" vertex="1" parent="1">
          <mxGeometry x="2192" y="86" width="220" height="110.5" as="geometry" />
        </mxCell>
        <mxCell id="M8VXxiBGEfHf2mh--UUg-44" value="reconcile Subscription" style="rounded=0;whiteSpace=wrap;html=1;fillColor=#fff2cc;strokeColor=#d6b656;fontStyle=1;fontSize=24;" vertex="1" parent="1">
          <mxGeometry x="1838" y="461.25" width="220" height="110.5" as="geometry" />
        </mxCell>
        <mxCell id="M8VXxiBGEfHf2mh--UUg-45" value="" style="edgeStyle=orthogonalEdgeStyle;shape=connector;rounded=0;orthogonalLoop=1;jettySize=auto;html=1;labelBackgroundColor=default;strokeColor=#82b366;strokeWidth=6;fontFamily=Helvetica;fontSize=11;fontColor=default;endArrow=classic;fillColor=#d5e8d4;" edge="1" parent="1" source="M8VXxiBGEfHf2mh--UUg-46" target="M8VXxiBGEfHf2mh--UUg-24">
          <mxGeometry relative="1" as="geometry" />
        </mxCell>
        <mxCell id="M8VXxiBGEfHf2mh--UUg-46" value="Project" style="rounded=0;whiteSpace=wrap;html=1;fillColor=#dae8fc;strokeColor=#6c8ebf;fontStyle=1;fontSize=24;" vertex="1" parent="1">
          <mxGeometry x="-48" y="86" width="220" height="110.5" as="geometry" />
        </mxCell>
        <mxCell id="M8VXxiBGEfHf2mh--UUg-47" style="edgeStyle=orthogonalEdgeStyle;shape=connector;rounded=0;orthogonalLoop=1;jettySize=auto;html=1;labelBackgroundColor=default;strokeColor=#82b366;strokeWidth=6;fontFamily=Helvetica;fontSize=11;fontColor=default;endArrow=classic;fillColor=#d5e8d4;" edge="1" parent="1" source="M8VXxiBGEfHf2mh--UUg-48" target="M8VXxiBGEfHf2mh--UUg-50">
          <mxGeometry relative="1" as="geometry" />
        </mxCell>
        <mxCell id="M8VXxiBGEfHf2mh--UUg-48" value="generate Product Deployment manifest" style="rounded=0;whiteSpace=wrap;html=1;fillColor=#fff2cc;strokeColor=#d6b656;fontStyle=1;fontSize=24;" vertex="1" parent="1">
          <mxGeometry x="2193" y="820.25" width="220" height="110.5" as="geometry" />
        </mxCell>
        <mxCell id="M8VXxiBGEfHf2mh--UUg-49" value="" style="edgeStyle=orthogonalEdgeStyle;shape=connector;rounded=0;orthogonalLoop=1;jettySize=auto;html=1;labelBackgroundColor=default;strokeColor=#82b366;strokeWidth=6;fontFamily=Helvetica;fontSize=11;fontColor=default;endArrow=classic;fillColor=#d5e8d4;" edge="1" parent="1" source="M8VXxiBGEfHf2mh--UUg-50" target="M8VXxiBGEfHf2mh--UUg-52">
          <mxGeometry relative="1" as="geometry" />
        </mxCell>
        <mxCell id="M8VXxiBGEfHf2mh--UUg-50" value="commit to&lt;br&gt;project repository" style="rounded=0;whiteSpace=wrap;html=1;fillColor=#fff2cc;strokeColor=#d6b656;fontStyle=1;fontSize=24;" vertex="1" parent="1">
          <mxGeometry x="2442" y="641.5" width="220" height="110" as="geometry" />
        </mxCell>
        <mxCell id="M8VXxiBGEfHf2mh--UUg-51" style="edgeStyle=orthogonalEdgeStyle;shape=connector;rounded=0;orthogonalLoop=1;jettySize=auto;html=1;labelBackgroundColor=default;strokeColor=#82b366;strokeWidth=6;fontFamily=Helvetica;fontSize=11;fontColor=default;endArrow=classic;fillColor=#d5e8d4;" edge="1" parent="1" source="M8VXxiBGEfHf2mh--UUg-52" target="M8VXxiBGEfHf2mh--UUg-82">
          <mxGeometry relative="1" as="geometry" />
        </mxCell>
        <mxCell id="M8VXxiBGEfHf2mh--UUg-52" value="create pull&lt;br&gt;request" style="rounded=0;whiteSpace=wrap;html=1;fillColor=#fff2cc;strokeColor=#d6b656;fontStyle=1;fontSize=24;" vertex="1" parent="1">
          <mxGeometry x="2764" y="641.5" width="220" height="110" as="geometry" />
        </mxCell>
        <mxCell id="M8VXxiBGEfHf2mh--UUg-53" value="" style="edgeStyle=orthogonalEdgeStyle;shape=connector;rounded=0;orthogonalLoop=1;jettySize=auto;html=1;labelBackgroundColor=default;strokeColor=#82b366;strokeWidth=6;fontFamily=Helvetica;fontSize=11;fontColor=default;endArrow=classic;fillColor=#d5e8d4;" edge="1" parent="1" source="M8VXxiBGEfHf2mh--UUg-54" target="M8VXxiBGEfHf2mh--UUg-55">
          <mxGeometry relative="1" as="geometry" />
        </mxCell>
        <mxCell id="M8VXxiBGEfHf2mh--UUg-54" value="validate&lt;br&gt;product&lt;br&gt;configuration" style="rounded=0;whiteSpace=wrap;html=1;fillColor=#fff2cc;strokeColor=#d6b656;fontStyle=1;fontSize=24;" vertex="1" parent="1">
          <mxGeometry x="3015" y="820.25" width="220" height="110.5" as="geometry" />
        </mxCell>
        <mxCell id="M8VXxiBGEfHf2mh--UUg-55" value="approve&lt;br&gt;pull request" style="rounded=0;whiteSpace=wrap;html=1;fillColor=#fff2cc;strokeColor=#d6b656;fontStyle=1;fontSize=24;" vertex="1" parent="1">
          <mxGeometry x="3311" y="820.25" width="220" height="110.5" as="geometry" />
        </mxCell>
        <mxCell id="M8VXxiBGEfHf2mh--UUg-56" style="edgeStyle=orthogonalEdgeStyle;shape=connector;rounded=0;orthogonalLoop=1;jettySize=auto;html=1;labelBackgroundColor=default;strokeColor=#82b366;strokeWidth=6;fontFamily=Helvetica;fontSize=11;fontColor=default;endArrow=classic;fillColor=#d5e8d4;" edge="1" parent="1" source="M8VXxiBGEfHf2mh--UUg-57" target="M8VXxiBGEfHf2mh--UUg-54">
          <mxGeometry relative="1" as="geometry" />
        </mxCell>
        <mxCell id="M8VXxiBGEfHf2mh--UUg-57" value="Product Deployment" style="rounded=0;whiteSpace=wrap;html=1;fillColor=#dae8fc;strokeColor=#6c8ebf;fontStyle=1;fontSize=24;" vertex="1" parent="1">
          <mxGeometry x="3015" y="86" width="220" height="110.5" as="geometry" />
        </mxCell>
        <mxCell id="M8VXxiBGEfHf2mh--UUg-58" value="" style="edgeStyle=orthogonalEdgeStyle;shape=connector;rounded=0;orthogonalLoop=1;jettySize=auto;html=1;labelBackgroundColor=default;strokeColor=#82b366;strokeWidth=6;fontFamily=Helvetica;fontSize=11;fontColor=default;endArrow=classic;fillColor=#d5e8d4;" edge="1" parent="1" source="M8VXxiBGEfHf2mh--UUg-60" target="M8VXxiBGEfHf2mh--UUg-62">
          <mxGeometry relative="1" as="geometry">
            <Array as="points">
              <mxPoint x="3690" y="1055" />
            </Array>
          </mxGeometry>
        </mxCell>
        <mxCell id="M8VXxiBGEfHf2mh--UUg-59" style="edgeStyle=orthogonalEdgeStyle;shape=connector;rounded=0;orthogonalLoop=1;jettySize=auto;html=1;labelBackgroundColor=default;strokeColor=#82b366;strokeWidth=6;fontFamily=Helvetica;fontSize=11;fontColor=default;endArrow=classic;fillColor=#d5e8d4;" edge="1" parent="1" source="M8VXxiBGEfHf2mh--UUg-60" target="M8VXxiBGEfHf2mh--UUg-71">
          <mxGeometry relative="1" as="geometry" />
        </mxCell>
        <mxCell id="M8VXxiBGEfHf2mh--UUg-60" value="generate&lt;br&gt;OCM pipeline" style="rounded=0;whiteSpace=wrap;html=1;fillColor=#fff2cc;strokeColor=#d6b656;fontStyle=1;fontSize=24;" vertex="1" parent="1">
          <mxGeometry x="3580" y="820.12" width="220" height="110.75" as="geometry" />
        </mxCell>
        <mxCell id="M8VXxiBGEfHf2mh--UUg-61" value="" style="edgeStyle=orthogonalEdgeStyle;shape=connector;rounded=0;orthogonalLoop=1;jettySize=auto;html=1;labelBackgroundColor=default;strokeColor=#82b366;strokeWidth=6;fontFamily=Helvetica;fontSize=11;fontColor=default;endArrow=classic;fillColor=#d5e8d4;" edge="1" parent="1" source="M8VXxiBGEfHf2mh--UUg-62" target="M8VXxiBGEfHf2mh--UUg-64">
          <mxGeometry relative="1" as="geometry" />
        </mxCell>
        <mxCell id="M8VXxiBGEfHf2mh--UUg-62" value="create&lt;br&gt;Component Version" style="rounded=0;whiteSpace=wrap;html=1;fillColor=#fff2cc;strokeColor=#d6b656;fontStyle=1;fontSize=24;" vertex="1" parent="1">
          <mxGeometry x="3829" y="999.13" width="220" height="110.75" as="geometry" />
        </mxCell>
        <mxCell id="M8VXxiBGEfHf2mh--UUg-63" value="" style="edgeStyle=orthogonalEdgeStyle;shape=connector;rounded=0;orthogonalLoop=1;jettySize=auto;html=1;labelBackgroundColor=default;strokeColor=#82b366;strokeWidth=6;fontFamily=Helvetica;fontSize=11;fontColor=default;endArrow=classic;fillColor=#d5e8d4;" edge="1" parent="1" source="M8VXxiBGEfHf2mh--UUg-64" target="M8VXxiBGEfHf2mh--UUg-65">
          <mxGeometry relative="1" as="geometry" />
        </mxCell>
        <mxCell id="M8VXxiBGEfHf2mh--UUg-64" value="create&amp;nbsp;&lt;br&gt;Localization" style="rounded=0;whiteSpace=wrap;html=1;fillColor=#fff2cc;strokeColor=#d6b656;fontStyle=1;fontSize=24;" vertex="1" parent="1">
          <mxGeometry x="4130" y="999.13" width="220" height="110.75" as="geometry" />
        </mxCell>
        <mxCell id="M8VXxiBGEfHf2mh--UUg-65" value="create&amp;nbsp;&lt;br&gt;Configuration" style="rounded=0;whiteSpace=wrap;html=1;fillColor=#fff2cc;strokeColor=#d6b656;fontStyle=1;fontSize=24;" vertex="1" parent="1">
          <mxGeometry x="4421" y="999.13" width="220" height="110.75" as="geometry" />
        </mxCell>
        <mxCell id="M8VXxiBGEfHf2mh--UUg-66" style="edgeStyle=orthogonalEdgeStyle;shape=connector;rounded=0;orthogonalLoop=1;jettySize=auto;html=1;labelBackgroundColor=default;strokeColor=#82b366;strokeWidth=6;fontFamily=Helvetica;fontSize=11;fontColor=default;endArrow=classic;fillColor=#d5e8d4;" edge="1" parent="1" source="M8VXxiBGEfHf2mh--UUg-67" target="M8VXxiBGEfHf2mh--UUg-83">
          <mxGeometry relative="1" as="geometry" />
        </mxCell>
        <mxCell id="M8VXxiBGEfHf2mh--UUg-67" value="create Kustomization" style="rounded=0;whiteSpace=wrap;html=1;fillColor=#fff2cc;strokeColor=#d6b656;fontStyle=1;fontSize=24;" vertex="1" parent="1">
          <mxGeometry x="4940" y="999.13" width="220" height="110.75" as="geometry" />
        </mxCell>
        <mxCell id="M8VXxiBGEfHf2mh--UUg-68" value="reconcile Target" style="rounded=0;whiteSpace=wrap;html=1;fillColor=#fff2cc;strokeColor=#d6b656;fontStyle=1;fontSize=24;" vertex="1" parent="1">
          <mxGeometry x="1540" y="286" width="220" height="110.5" as="geometry" />
        </mxCell>
        <mxCell id="M8VXxiBGEfHf2mh--UUg-69" style="edgeStyle=orthogonalEdgeStyle;shape=connector;rounded=0;orthogonalLoop=1;jettySize=auto;html=1;labelBackgroundColor=default;strokeColor=#82b366;strokeWidth=6;fontFamily=Helvetica;fontSize=11;fontColor=default;endArrow=classic;fillColor=#d5e8d4;entryX=0.5;entryY=0;entryDx=0;entryDy=0;" edge="1" parent="1" source="M8VXxiBGEfHf2mh--UUg-20" target="M8VXxiBGEfHf2mh--UUg-60">
          <mxGeometry relative="1" as="geometry">
            <mxPoint x="3455.1111111111104" y="820.1300000000001" as="targetPoint" />
          </mxGeometry>
        </mxCell>
        <mxCell id="M8VXxiBGEfHf2mh--UUg-70" value="" style="edgeStyle=orthogonalEdgeStyle;shape=connector;rounded=0;orthogonalLoop=1;jettySize=auto;html=1;labelBackgroundColor=default;strokeColor=#82b366;strokeWidth=6;fontFamily=Helvetica;fontSize=11;fontColor=default;endArrow=classic;fillColor=#d5e8d4;" edge="1" parent="1" source="M8VXxiBGEfHf2mh--UUg-71" target="M8VXxiBGEfHf2mh--UUg-67">
          <mxGeometry relative="1" as="geometry">
            <Array as="points">
              <mxPoint x="4793" y="1061" />
            </Array>
          </mxGeometry>
        </mxCell>
        <mxCell id="M8VXxiBGEfHf2mh--UUg-71" value="select Target" style="rounded=0;whiteSpace=wrap;html=1;fillColor=#fff2cc;strokeColor=#d6b656;fontStyle=1;fontSize=24;" vertex="1" parent="1">
          <mxGeometry x="4683" y="820.12" width="220" height="110.75" as="geometry" />
        </mxCell>
        <mxCell id="M8VXxiBGEfHf2mh--UUg-72" value="&lt;span style=&quot;font-size: 32px;&quot;&gt;Operator Action&lt;/span&gt;" style="text;html=1;align=center;verticalAlign=middle;resizable=0;points=[];autosize=1;strokeColor=none;fillColor=none;fontSize=11;fontFamily=Helvetica;fontColor=default;fontStyle=1" vertex="1" parent="1">
          <mxGeometry x="-381" y="-49" width="260" height="50" as="geometry" />
        </mxCell>
        <mxCell id="M8VXxiBGEfHf2mh--UUg-73" value="&lt;span style=&quot;font-size: 32px;&quot;&gt;Kubernetes Resource&lt;/span&gt;" style="text;html=1;align=center;verticalAlign=middle;resizable=0;points=[];autosize=1;strokeColor=none;fillColor=none;fontSize=11;fontFamily=Helvetica;fontColor=default;fontStyle=1" vertex="1" parent="1">
          <mxGeometry x="-430.5" y="113" width="349" height="50" as="geometry" />
        </mxCell>
        <mxCell id="M8VXxiBGEfHf2mh--UUg-74" value="" style="edgeStyle=orthogonalEdgeStyle;shape=connector;rounded=0;orthogonalLoop=1;jettySize=auto;html=1;labelBackgroundColor=default;strokeColor=#82b366;strokeWidth=6;fontFamily=Helvetica;fontSize=11;fontColor=default;endArrow=classic;fillColor=#d5e8d4;" edge="1" parent="1" source="M8VXxiBGEfHf2mh--UUg-75" target="M8VXxiBGEfHf2mh--UUg-25">
          <mxGeometry relative="1" as="geometry" />
        </mxCell>
        <mxCell id="M8VXxiBGEfHf2mh--UUg-75" value="create service&lt;br&gt;account" style="rounded=0;whiteSpace=wrap;html=1;fillColor=#fff2cc;strokeColor=#d6b656;fontStyle=1;fontSize=24;" vertex="1" parent="1">
          <mxGeometry x="256" y="281.75" width="220" height="110.5" as="geometry" />
        </mxCell>
        <mxCell id="M8VXxiBGEfHf2mh--UUg-76" value="&lt;span style=&quot;font-size: 32px;&quot;&gt;MPAS Control Plane&lt;/span&gt;" style="text;html=1;align=center;verticalAlign=middle;resizable=0;points=[];autosize=1;strokeColor=none;fillColor=none;fontSize=11;fontFamily=Helvetica;fontColor=default;fontStyle=1;rotation=-90;" vertex="1" parent="1">
          <mxGeometry x="-644" y="671.5" width="325" height="50" as="geometry" />
        </mxCell>
        <mxCell id="M8VXxiBGEfHf2mh--UUg-77" value="" style="shape=flexArrow;endArrow=classic;html=1;rounded=0;labelBackgroundColor=default;strokeColor=#666666;strokeWidth=6;fontFamily=Helvetica;fontSize=11;fontColor=default;fillColor=#f5f5f5;" edge="1" parent="1">
          <mxGeometry width="50" height="50" relative="1" as="geometry">
            <mxPoint x="-404" y="-280" as="sourcePoint" />
            <mxPoint x="5306" y="-280" as="targetPoint" />
          </mxGeometry>
        </mxCell>
        <mxCell id="M8VXxiBGEfHf2mh--UUg-78" value="&lt;font style=&quot;font-size: 32px;&quot;&gt;TIME&lt;/font&gt;" style="text;html=1;align=center;verticalAlign=middle;resizable=0;points=[];autosize=1;strokeColor=none;fillColor=none;fontSize=11;fontFamily=Helvetica;fontColor=default;fontStyle=1" vertex="1" parent="1">
          <mxGeometry x="-296" y="-355" width="94" height="50" as="geometry" />
        </mxCell>
        <mxCell id="M8VXxiBGEfHf2mh--UUg-79" value="&lt;font style=&quot;font-size: 50px;&quot;&gt;&lt;b&gt;MPAS Event Model : Project Setup &amp;amp; Product Deployment&lt;/b&gt;&lt;/font&gt;" style="text;html=1;align=center;verticalAlign=middle;resizable=0;points=[];autosize=1;strokeColor=none;fillColor=none;fontSize=11;fontFamily=Helvetica;fontColor=default;" vertex="1" parent="1">
          <mxGeometry x="-421" y="-493" width="1386" height="72" as="geometry" />
        </mxCell>
        <mxCell id="M8VXxiBGEfHf2mh--UUg-80" value="&lt;h1&gt;&lt;span style=&quot;font-weight: normal;&quot;&gt;Product Description Component:&lt;/span&gt;&lt;/h1&gt;&lt;h1&gt;&lt;span style=&quot;font-weight: normal;&quot;&gt;Product Description must be created for a &quot;podinfo&quot; product. It contains&lt;/span&gt;&amp;nbsp; &lt;span style=&quot;font-weight: normal;&quot;&gt;microservices&lt;/span&gt;:&lt;/h1&gt;&lt;h1&gt;&lt;ol&gt;&lt;li&gt;&lt;span style=&quot;font-weight: normal;&quot;&gt;frontend&lt;/span&gt;&lt;/li&gt;&lt;li&gt;&lt;span style=&quot;font-weight: normal;&quot;&gt;backend&lt;/span&gt;&lt;/li&gt;&lt;li&gt;&lt;span style=&quot;font-weight: normal;&quot;&gt;cache&lt;/span&gt;&lt;/li&gt;&lt;/ol&gt;&lt;/h1&gt;&lt;h1&gt;&lt;span style=&quot;font-weight: normal;&quot;&gt;Cache (redis) should be defined in a separate component descriptor.&lt;/span&gt;&lt;/h1&gt;&lt;h1&gt;&lt;span style=&quot;font-weight: normal;&quot;&gt;Each service should have localization rules, configuration rules and a README.&lt;/span&gt;&lt;/h1&gt;&lt;h1&gt;&lt;span style=&quot;font-weight: normal;&quot;&gt;There should be a validation resource (conftest) that is executed against&amp;nbsp;Product Deployment and values file to ensure the change set can be merged.&lt;/span&gt;&lt;/h1&gt;&lt;h1&gt;&lt;span style=&quot;font-weight: normal;&quot;&gt;The configurable values are:&lt;/span&gt;&lt;/h1&gt;&lt;h1&gt;&lt;ul&gt;&lt;li&gt;&lt;span style=&quot;font-weight: normal;&quot;&gt;backend: replicas&lt;/span&gt;&lt;/li&gt;&lt;li&gt;&lt;span style=&quot;font-weight: normal;&quot;&gt;frontend: background color&lt;/span&gt;&lt;/li&gt;&lt;li&gt;&lt;span style=&quot;font-weight: normal;&quot;&gt;cache: resources&lt;/span&gt;&lt;/li&gt;&lt;/ul&gt;&lt;/h1&gt;&lt;h1&gt;&lt;span style=&quot;font-weight: normal;&quot;&gt;One targetRole should be defined for a Kubernetes cluster which supports ingress.&lt;/span&gt;&lt;/h1&gt;&lt;div&gt;&lt;br&gt;&lt;/div&gt;" style="text;html=1;strokeColor=default;fillColor=none;spacing=5;spacingTop=-20;whiteSpace=wrap;overflow=hidden;rounded=0;fontSize=11;fontFamily=Helvetica;fontColor=default;" vertex="1" parent="1">
          <mxGeometry x="-1660" y="-504" width="979" height="796" as="geometry" />
        </mxCell>
        <mxCell id="M8VXxiBGEfHf2mh--UUg-81" value="Project&lt;br&gt;Ready" style="rounded=0;whiteSpace=wrap;html=1;fillColor=#1ba1e2;strokeColor=#006EAF;fontStyle=1;fontSize=24;fontColor=#ffffff;" vertex="1" parent="1">
          <mxGeometry x="1268" y="86" width="220" height="110.5" as="geometry" />
        </mxCell>
        <mxCell id="M8VXxiBGEfHf2mh--UUg-82" value="Product&lt;br&gt;Deployment Generator Ready" style="rounded=0;whiteSpace=wrap;html=1;fillColor=#1ba1e2;strokeColor=#006EAF;fontStyle=1;fontSize=24;fontColor=#ffffff;" vertex="1" parent="1">
          <mxGeometry x="2763" y="86" width="220" height="110.5" as="geometry" />
        </mxCell>
        <mxCell id="M8VXxiBGEfHf2mh--UUg-83" value="Product Deployment&lt;br&gt;Ready" style="rounded=0;whiteSpace=wrap;html=1;fillColor=#1ba1e2;strokeColor=#006EAF;fontStyle=1;fontSize=24;fontColor=#ffffff;" vertex="1" parent="1">
          <mxGeometry x="4939" y="86" width="220" height="110.5" as="geometry" />
        </mxCell>
        <mxCell id="M8VXxiBGEfHf2mh--UUg-84" style="edgeStyle=orthogonalEdgeStyle;shape=connector;rounded=0;orthogonalLoop=1;jettySize=auto;html=1;labelBackgroundColor=default;strokeColor=#82b366;strokeWidth=6;fontFamily=Helvetica;fontSize=11;fontColor=default;endArrow=classic;fillColor=#d5e8d4;" edge="1" parent="1" source="M8VXxiBGEfHf2mh--UUg-85" target="M8VXxiBGEfHf2mh--UUg-27">
          <mxGeometry relative="1" as="geometry">
            <Array as="points">
              <mxPoint x="1378" y="692" />
            </Array>
          </mxGeometry>
        </mxCell>
        <mxCell id="M8VXxiBGEfHf2mh--UUg-85" value="setup repository&lt;br&gt;directory &lt;br&gt;structure" style="rounded=0;whiteSpace=wrap;html=1;fillColor=#fff2cc;strokeColor=#d6b656;fontStyle=1;fontSize=24;" vertex="1" parent="1">
          <mxGeometry x="1078" y="637.5" width="220" height="110" as="geometry" />
        </mxCell>
        <mxCell id="M8VXxiBGEfHf2mh--UUg-86" style="edgeStyle=orthogonalEdgeStyle;shape=connector;rounded=0;orthogonalLoop=1;jettySize=auto;html=1;entryX=0;entryY=0.5;entryDx=0;entryDy=0;labelBackgroundColor=default;strokeColor=#82b366;strokeWidth=6;fontFamily=Helvetica;fontSize=11;fontColor=default;endArrow=classic;fillColor=#d5e8d4;" edge="1" parent="1" source="M8VXxiBGEfHf2mh--UUg-25" target="M8VXxiBGEfHf2mh--UUg-33">
          <mxGeometry relative="1" as="geometry" />
        </mxCell>
        <mxCell id="M8VXxiBGEfHf2mh--UUg-87" style="edgeStyle=orthogonalEdgeStyle;shape=connector;rounded=0;orthogonalLoop=1;jettySize=auto;html=1;labelBackgroundColor=default;strokeColor=#82b366;strokeWidth=2;fontFamily=Helvetica;fontSize=11;fontColor=default;endArrow=none;fillColor=#d5e8d4;dashed=1;startArrow=classic;startFill=1;endFill=0;" edge="1" parent="1" source="M8VXxiBGEfHf2mh--UUg-88" target="M8VXxiBGEfHf2mh--UUg-68">
          <mxGeometry relative="1" as="geometry" />
        </mxCell>
        <mxCell id="M8VXxiBGEfHf2mh--UUg-88" value="target&lt;br&gt;counter ++" style="rounded=0;whiteSpace=wrap;html=1;fontFamily=Helvetica;fontSize=24;fillColor=#d5e8d4;strokeColor=#82b366;" vertex="1" parent="1">
          <mxGeometry x="1549" y="1165" width="202" height="101" as="geometry" />
        </mxCell>
        <mxCell id="M8VXxiBGEfHf2mh--UUg-89" style="edgeStyle=orthogonalEdgeStyle;shape=connector;rounded=0;orthogonalLoop=1;jettySize=auto;html=1;dashed=1;labelBackgroundColor=default;strokeColor=#82b366;strokeWidth=2;fontFamily=Helvetica;fontSize=11;fontColor=default;endArrow=none;fillColor=#d5e8d4;startArrow=classic;startFill=1;endFill=0;" edge="1" parent="1" source="M8VXxiBGEfHf2mh--UUg-90" target="M8VXxiBGEfHf2mh--UUg-81">
          <mxGeometry relative="1" as="geometry">
            <Array as="points">
              <mxPoint x="1407" y="471" />
              <mxPoint x="1511" y="471" />
              <mxPoint x="1511" y="141" />
            </Array>
          </mxGeometry>
        </mxCell>
        <mxCell id="M8VXxiBGEfHf2mh--UUg-90" value="project ready&lt;br&gt;counter ++" style="rounded=0;whiteSpace=wrap;html=1;fontFamily=Helvetica;fontSize=24;fillColor=#d5e8d4;strokeColor=#82b366;" vertex="1" parent="1">
          <mxGeometry x="1306" y="1165" width="202" height="101" as="geometry" />
        </mxCell>
        <mxCell id="M8VXxiBGEfHf2mh--UUg-91" value="&lt;span style=&quot;font-size: 32px;&quot;&gt;Prometheus Metrics&lt;/span&gt;" style="text;html=1;align=center;verticalAlign=middle;resizable=0;points=[];autosize=1;strokeColor=none;fillColor=none;fontSize=11;fontFamily=Helvetica;fontColor=default;fontStyle=1" vertex="1" parent="1">
          <mxGeometry x="-392" y="1206" width="324" height="50" as="geometry" />
        </mxCell>
        <mxCell id="M8VXxiBGEfHf2mh--UUg-92" style="edgeStyle=orthogonalEdgeStyle;shape=connector;rounded=0;orthogonalLoop=1;jettySize=auto;html=1;dashed=1;labelBackgroundColor=default;strokeColor=#82b366;strokeWidth=2;fontFamily=Helvetica;fontSize=11;fontColor=default;endArrow=none;fillColor=#d5e8d4;startArrow=classic;startFill=1;endFill=0;" edge="1" parent="1" source="M8VXxiBGEfHf2mh--UUg-93" target="M8VXxiBGEfHf2mh--UUg-33">
          <mxGeometry relative="1" as="geometry" />
        </mxCell>
        <mxCell id="M8VXxiBGEfHf2mh--UUg-93" value="repository&lt;br&gt;counter ++" style="rounded=0;whiteSpace=wrap;html=1;fontFamily=Helvetica;fontSize=24;fillColor=#d5e8d4;strokeColor=#82b366;" vertex="1" parent="1">
          <mxGeometry x="763" y="1175" width="203" height="101" as="geometry" />
        </mxCell>
        <mxCell id="M8VXxiBGEfHf2mh--UUg-94" style="edgeStyle=orthogonalEdgeStyle;shape=connector;rounded=0;orthogonalLoop=1;jettySize=auto;html=1;dashed=1;labelBackgroundColor=default;strokeColor=#82b366;strokeWidth=2;fontFamily=Helvetica;fontSize=11;fontColor=default;endArrow=none;fillColor=#d5e8d4;startArrow=classic;startFill=1;endFill=0;" edge="1" parent="1" source="M8VXxiBGEfHf2mh--UUg-95" target="M8VXxiBGEfHf2mh--UUg-44">
          <mxGeometry relative="1" as="geometry" />
        </mxCell>
        <mxCell id="M8VXxiBGEfHf2mh--UUg-95" value="subscription&lt;br&gt;counter ++" style="rounded=0;whiteSpace=wrap;html=1;fontFamily=Helvetica;fontSize=24;fillColor=#d5e8d4;strokeColor=#82b366;" vertex="1" parent="1">
          <mxGeometry x="1846" y="1165" width="202" height="101" as="geometry" />
        </mxCell>
        <mxCell id="M8VXxiBGEfHf2mh--UUg-96" style="edgeStyle=orthogonalEdgeStyle;shape=connector;rounded=0;orthogonalLoop=1;jettySize=auto;html=1;dashed=1;labelBackgroundColor=default;strokeColor=#82b366;strokeWidth=2;fontFamily=Helvetica;fontSize=11;fontColor=default;endArrow=none;fillColor=#d5e8d4;startArrow=classic;startFill=1;endFill=0;" edge="1" parent="1" source="M8VXxiBGEfHf2mh--UUg-97" target="M8VXxiBGEfHf2mh--UUg-52">
          <mxGeometry relative="1" as="geometry" />
        </mxCell>
        <mxCell id="M8VXxiBGEfHf2mh--UUg-97" value="product instance&lt;br&gt;ready&lt;br&gt;counter ++" style="rounded=0;whiteSpace=wrap;html=1;fontFamily=Helvetica;fontSize=24;fillColor=#d5e8d4;strokeColor=#82b366;" vertex="1" parent="1">
          <mxGeometry x="2772" y="1165" width="202" height="101" as="geometry" />
        </mxCell>
        <mxCell id="M8VXxiBGEfHf2mh--UUg-98" style="edgeStyle=orthogonalEdgeStyle;shape=connector;rounded=0;orthogonalLoop=1;jettySize=auto;html=1;dashed=1;labelBackgroundColor=default;strokeColor=#82b366;strokeWidth=2;fontFamily=Helvetica;fontSize=11;fontColor=default;endArrow=none;fillColor=#d5e8d4;startArrow=classic;startFill=1;endFill=0;" edge="1" parent="1" source="M8VXxiBGEfHf2mh--UUg-99" target="M8VXxiBGEfHf2mh--UUg-24">
          <mxGeometry relative="1" as="geometry" />
        </mxCell>
        <mxCell id="M8VXxiBGEfHf2mh--UUg-99" value="project&lt;br&gt;counter ++" style="rounded=0;whiteSpace=wrap;html=1;fontFamily=Helvetica;fontSize=24;fillColor=#d5e8d4;strokeColor=#82b366;" vertex="1" parent="1">
          <mxGeometry x="-39" y="1175" width="202" height="101" as="geometry" />
        </mxCell>
        <mxCell id="M8VXxiBGEfHf2mh--UUg-100" style="edgeStyle=orthogonalEdgeStyle;shape=connector;rounded=0;orthogonalLoop=1;jettySize=auto;html=1;dashed=1;labelBackgroundColor=default;strokeColor=#82b366;strokeWidth=2;fontFamily=Helvetica;fontSize=11;fontColor=default;endArrow=none;fillColor=#d5e8d4;startArrow=classic;startFill=1;endFill=0;" edge="1" parent="1" source="M8VXxiBGEfHf2mh--UUg-101" target="M8VXxiBGEfHf2mh--UUg-48">
          <mxGeometry relative="1" as="geometry" />
        </mxCell>
        <mxCell id="M8VXxiBGEfHf2mh--UUg-101" value="product instance&lt;br&gt;counter ++" style="rounded=0;whiteSpace=wrap;html=1;fontFamily=Helvetica;fontSize=24;fillColor=#d5e8d4;strokeColor=#82b366;" vertex="1" parent="1">
          <mxGeometry x="2203" y="1165" width="202" height="101" as="geometry" />
        </mxCell>
        <mxCell id="M8VXxiBGEfHf2mh--UUg-102" style="edgeStyle=orthogonalEdgeStyle;shape=connector;rounded=0;orthogonalLoop=1;jettySize=auto;html=1;dashed=1;labelBackgroundColor=default;strokeColor=#82b366;strokeWidth=2;fontFamily=Helvetica;fontSize=11;fontColor=default;endArrow=none;fillColor=#d5e8d4;startArrow=classic;startFill=1;endFill=0;" edge="1" parent="1" source="M8VXxiBGEfHf2mh--UUg-103" target="M8VXxiBGEfHf2mh--UUg-54">
          <mxGeometry relative="1" as="geometry" />
        </mxCell>
        <mxCell id="M8VXxiBGEfHf2mh--UUg-103" value="product deployment&lt;br&gt;counter ++" style="rounded=0;whiteSpace=wrap;html=1;fontFamily=Helvetica;fontSize=24;fillColor=#d5e8d4;strokeColor=#82b366;" vertex="1" parent="1">
          <mxGeometry x="3023" y="1165" width="202" height="101" as="geometry" />
        </mxCell>
        <mxCell id="M8VXxiBGEfHf2mh--UUg-104" style="edgeStyle=orthogonalEdgeStyle;shape=connector;rounded=0;orthogonalLoop=1;jettySize=auto;html=1;dashed=1;labelBackgroundColor=default;strokeColor=#82b366;strokeWidth=2;fontFamily=Helvetica;fontSize=11;fontColor=default;endArrow=none;fillColor=#d5e8d4;exitX=0.75;exitY=0;exitDx=0;exitDy=0;startArrow=classic;startFill=1;endFill=0;" edge="1" parent="1" source="M8VXxiBGEfHf2mh--UUg-105" target="M8VXxiBGEfHf2mh--UUg-54">
          <mxGeometry relative="1" as="geometry">
            <Array as="points">
              <mxPoint x="3237" y="1116" />
              <mxPoint x="3157" y="1116" />
            </Array>
          </mxGeometry>
        </mxCell>
        <mxCell id="M8VXxiBGEfHf2mh--UUg-105" value="product deployment&lt;br&gt;valid counter ++" style="rounded=0;whiteSpace=wrap;html=1;fontFamily=Helvetica;fontSize=24;fillColor=#d5e8d4;strokeColor=#82b366;" vertex="1" parent="1">
          <mxGeometry x="3085" y="1301" width="202" height="101" as="geometry" />
        </mxCell>
        <mxCell id="M8VXxiBGEfHf2mh--UUg-106" style="edgeStyle=orthogonalEdgeStyle;shape=connector;rounded=0;orthogonalLoop=1;jettySize=auto;html=1;dashed=1;labelBackgroundColor=default;strokeColor=#82b366;strokeWidth=2;fontFamily=Helvetica;fontSize=11;fontColor=default;endArrow=none;fillColor=#d5e8d4;startArrow=classic;startFill=1;endFill=0;" edge="1" parent="1" source="M8VXxiBGEfHf2mh--UUg-107" target="M8VXxiBGEfHf2mh--UUg-55">
          <mxGeometry relative="1" as="geometry" />
        </mxCell>
        <mxCell id="M8VXxiBGEfHf2mh--UUg-107" value="product deployment&lt;br&gt;approved &lt;br&gt;counter ++" style="rounded=0;whiteSpace=wrap;html=1;fontFamily=Helvetica;fontSize=24;fillColor=#d5e8d4;strokeColor=#82b366;" vertex="1" parent="1">
          <mxGeometry x="3299" y="1165" width="240" height="101" as="geometry" />
        </mxCell>
        <mxCell id="M8VXxiBGEfHf2mh--UUg-108" style="edgeStyle=orthogonalEdgeStyle;shape=connector;rounded=0;orthogonalLoop=1;jettySize=auto;html=1;entryX=0.25;entryY=1;entryDx=0;entryDy=0;dashed=1;labelBackgroundColor=default;strokeColor=#82b366;strokeWidth=2;fontFamily=Helvetica;fontSize=11;fontColor=default;endArrow=none;fillColor=#d5e8d4;startArrow=classic;startFill=1;endFill=0;" edge="1" parent="1" source="M8VXxiBGEfHf2mh--UUg-109" target="M8VXxiBGEfHf2mh--UUg-60">
          <mxGeometry relative="1" as="geometry">
            <Array as="points">
              <mxPoint x="3700" y="1100" />
              <mxPoint x="3635" y="1100" />
            </Array>
          </mxGeometry>
        </mxCell>
        <mxCell id="M8VXxiBGEfHf2mh--UUg-109" value="product deployment&lt;br&gt;merged&lt;br&gt;counter ++" style="rounded=0;whiteSpace=wrap;html=1;fontFamily=Helvetica;fontSize=24;fillColor=#d5e8d4;strokeColor=#82b366;" vertex="1" parent="1">
          <mxGeometry x="3580" y="1165" width="240" height="101" as="geometry" />
        </mxCell>
        <mxCell id="M8VXxiBGEfHf2mh--UUg-110" style="edgeStyle=orthogonalEdgeStyle;shape=connector;rounded=0;orthogonalLoop=1;jettySize=auto;html=1;entryX=0.25;entryY=1;entryDx=0;entryDy=0;dashed=1;labelBackgroundColor=default;strokeColor=#82b366;strokeWidth=2;fontFamily=Helvetica;fontSize=11;fontColor=default;endArrow=none;fillColor=#d5e8d4;startArrow=classic;startFill=1;endFill=0;" edge="1" parent="1" source="M8VXxiBGEfHf2mh--UUg-111" target="M8VXxiBGEfHf2mh--UUg-71">
          <mxGeometry relative="1" as="geometry">
            <Array as="points">
              <mxPoint x="4803" y="1086" />
              <mxPoint x="4738" y="1086" />
            </Array>
          </mxGeometry>
        </mxCell>
        <mxCell id="M8VXxiBGEfHf2mh--UUg-111" value="product deployment&lt;br&gt;target selected&lt;br&gt;counter ++" style="rounded=0;whiteSpace=wrap;html=1;fontFamily=Helvetica;fontSize=24;fillColor=#d5e8d4;strokeColor=#82b366;" vertex="1" parent="1">
          <mxGeometry x="4683" y="1157" width="240" height="101" as="geometry" />
        </mxCell>
        <mxCell id="M8VXxiBGEfHf2mh--UUg-112" style="edgeStyle=orthogonalEdgeStyle;shape=connector;rounded=0;orthogonalLoop=1;jettySize=auto;html=1;dashed=1;labelBackgroundColor=default;strokeColor=#82b366;strokeWidth=2;fontFamily=Helvetica;fontSize=11;fontColor=default;endArrow=none;fillColor=#d5e8d4;startArrow=classic;startFill=1;endFill=0;" edge="1" parent="1" source="M8VXxiBGEfHf2mh--UUg-113" target="M8VXxiBGEfHf2mh--UUg-67">
          <mxGeometry relative="1" as="geometry" />
        </mxCell>
        <mxCell id="M8VXxiBGEfHf2mh--UUg-113" value="product deployment&lt;br&gt;ready counter ++" style="rounded=0;whiteSpace=wrap;html=1;fontFamily=Helvetica;fontSize=24;fillColor=#d5e8d4;strokeColor=#82b366;" vertex="1" parent="1">
          <mxGeometry x="4930" y="1310" width="240" height="101" as="geometry" />
        </mxCell>
        <mxCell id="M8VXxiBGEfHf2mh--UUg-114" value="" style="endArrow=none;dashed=1;html=1;rounded=0;labelBackgroundColor=default;strokeColor=#b85450;strokeWidth=5;fontFamily=Helvetica;fontSize=11;fontColor=default;fillColor=#f8cecc;shape=connector;" edge="1" parent="1" source="M8VXxiBGEfHf2mh--UUg-116">
          <mxGeometry width="50" height="50" relative="1" as="geometry">
            <mxPoint x="2130" y="1383" as="sourcePoint" />
            <mxPoint x="2130" y="-470" as="targetPoint" />
          </mxGeometry>
        </mxCell>
        <mxCell id="M8VXxiBGEfHf2mh--UUg-115" value="" style="endArrow=none;dashed=1;html=1;rounded=0;labelBackgroundColor=default;strokeColor=#b85450;strokeWidth=5;fontFamily=Helvetica;fontSize=11;fontColor=default;fillColor=#f8cecc;shape=connector;" edge="1" parent="1" target="M8VXxiBGEfHf2mh--UUg-116">
          <mxGeometry width="50" height="50" relative="1" as="geometry">
            <mxPoint x="2130" y="1383" as="sourcePoint" />
            <mxPoint x="2130" y="-470" as="targetPoint" />
          </mxGeometry>
        </mxCell>
        <mxCell id="M8VXxiBGEfHf2mh--UUg-116" value="" style="ellipse;whiteSpace=wrap;html=1;aspect=fixed;fontFamily=Helvetica;fontSize=11;fillColor=#f8cecc;strokeColor=#b85450;strokeWidth=5;" vertex="1" parent="1">
          <mxGeometry x="2089" y="-483" width="80" height="80" as="geometry" />
        </mxCell>
        <mxCell id="M8VXxiBGEfHf2mh--UUg-117" value="Project Setup" style="text;html=1;align=center;verticalAlign=middle;resizable=0;points=[];autosize=1;strokeColor=none;fillColor=none;fontSize=32;fontFamily=Helvetica;fontColor=default;fontStyle=1" vertex="1" parent="1">
          <mxGeometry x="1843" y="-468" width="224" height="50" as="geometry" />
        </mxCell>
        <mxCell id="M8VXxiBGEfHf2mh--UUg-118" value="Product Deployment" style="text;html=1;align=center;verticalAlign=middle;resizable=0;points=[];autosize=1;strokeColor=none;fillColor=none;fontSize=32;fontFamily=Helvetica;fontColor=default;fontStyle=1" vertex="1" parent="1">
          <mxGeometry x="2191" y="-468" width="331" height="50" as="geometry" />
        </mxCell>
      </root>
    </mxGraphModel>
  </diagram>
</mxfile>